<?xml version="1.0" encoding="utf-8" standalone="no"?>
<!DOCTYPE svg PUBLIC "-//W3C//DTD SVG 1.1//EN"
  "http://www.w3.org/Graphics/SVG/1.1/DTD/svg11.dtd">
<svg xmlns:xlink="http://www.w3.org/1999/xlink" width="969.3625pt" height="507.6325pt" viewBox="0 0 969.3625 507.6325" xmlns="http://www.w3.org/2000/svg" version="1.1">
 <metadata>
  <rdf:RDF xmlns:dc="http://purl.org/dc/elements/1.1/" xmlns:cc="http://creativecommons.org/ns#" xmlns:rdf="http://www.w3.org/1999/02/22-rdf-syntax-ns#">
   <cc:Work>
    <dc:type rdf:resource="http://purl.org/dc/dcmitype/StillImage"/>
    <dc:date>2022-07-06T12:16:38.682972</dc:date>
    <dc:format>image/svg+xml</dc:format>
    <dc:creator>
     <cc:Agent>
      <dc:title>Matplotlib v3.5.1, https://matplotlib.org/</dc:title>
     </cc:Agent>
    </dc:creator>
   </cc:Work>
  </rdf:RDF>
 </metadata>
 <defs>
  <style type="text/css">*{stroke-linejoin: round; stroke-linecap: butt}</style>
 </defs>
 <g id="figure_1">
  <g id="patch_1">
   <path d="M 0 507.6325 
L 969.3625 507.6325 
L 969.3625 0 
L 0 0 
z
" style="fill: #ffffff"/>
  </g>
  <g id="axes_1">
   <g id="patch_2">
    <path d="M 69.3625 450.72 
L 962.1625 450.72 
L 962.1625 7.2 
L 69.3625 7.2 
z
" style="fill: #ffffff"/>
   </g>
   <g id="matplotlib.axis_1">
    <g id="xtick_1">
     <g id="line2d_1">
      <defs>
       <path id="md617a998a7" d="M 0 0 
L 0 3.5 
" style="stroke: #000000; stroke-width: 0.8"/>
      </defs>
      <g>
       <use xlink:href="#md617a998a7" x="109.128603" y="450.72" style="stroke: #000000; stroke-width: 0.8"/>
      </g>
     </g>
     <g id="text_1">
      <!-- 0 -->
      <g transform="translate(102.766103 472.916875)scale(0.2 -0.2)">
       <defs>
        <path id="DejaVuSans-30" d="M 2034 4250 
Q 1547 4250 1301 3770 
Q 1056 3291 1056 2328 
Q 1056 1369 1301 889 
Q 1547 409 2034 409 
Q 2525 409 2770 889 
Q 3016 1369 3016 2328 
Q 3016 3291 2770 3770 
Q 2525 4250 2034 4250 
z
M 2034 4750 
Q 2819 4750 3233 4129 
Q 3647 3509 3647 2328 
Q 3647 1150 3233 529 
Q 2819 -91 2034 -91 
Q 1250 -91 836 529 
Q 422 1150 422 2328 
Q 422 3509 836 4129 
Q 1250 4750 2034 4750 
z
" transform="scale(0.015625)"/>
       </defs>
       <use xlink:href="#DejaVuSans-30"/>
      </g>
     </g>
    </g>
    <g id="xtick_2">
     <g id="line2d_2">
      <g>
       <use xlink:href="#md617a998a7" x="272.271591" y="450.72" style="stroke: #000000; stroke-width: 0.8"/>
      </g>
     </g>
     <g id="text_2">
      <!-- 200 -->
      <g transform="translate(253.184091 472.916875)scale(0.2 -0.2)">
       <defs>
        <path id="DejaVuSans-32" d="M 1228 531 
L 3431 531 
L 3431 0 
L 469 0 
L 469 531 
Q 828 903 1448 1529 
Q 2069 2156 2228 2338 
Q 2531 2678 2651 2914 
Q 2772 3150 2772 3378 
Q 2772 3750 2511 3984 
Q 2250 4219 1831 4219 
Q 1534 4219 1204 4116 
Q 875 4013 500 3803 
L 500 4441 
Q 881 4594 1212 4672 
Q 1544 4750 1819 4750 
Q 2544 4750 2975 4387 
Q 3406 4025 3406 3419 
Q 3406 3131 3298 2873 
Q 3191 2616 2906 2266 
Q 2828 2175 2409 1742 
Q 1991 1309 1228 531 
z
" transform="scale(0.015625)"/>
       </defs>
       <use xlink:href="#DejaVuSans-32"/>
       <use xlink:href="#DejaVuSans-30" x="63.623047"/>
       <use xlink:href="#DejaVuSans-30" x="127.246094"/>
      </g>
     </g>
    </g>
    <g id="xtick_3">
     <g id="line2d_3">
      <g>
       <use xlink:href="#md617a998a7" x="435.414579" y="450.72" style="stroke: #000000; stroke-width: 0.8"/>
      </g>
     </g>
     <g id="text_3">
      <!-- 400 -->
      <g transform="translate(416.327079 472.916875)scale(0.2 -0.2)">
       <defs>
        <path id="DejaVuSans-34" d="M 2419 4116 
L 825 1625 
L 2419 1625 
L 2419 4116 
z
M 2253 4666 
L 3047 4666 
L 3047 1625 
L 3713 1625 
L 3713 1100 
L 3047 1100 
L 3047 0 
L 2419 0 
L 2419 1100 
L 313 1100 
L 313 1709 
L 2253 4666 
z
" transform="scale(0.015625)"/>
       </defs>
       <use xlink:href="#DejaVuSans-34"/>
       <use xlink:href="#DejaVuSans-30" x="63.623047"/>
       <use xlink:href="#DejaVuSans-30" x="127.246094"/>
      </g>
     </g>
    </g>
    <g id="xtick_4">
     <g id="line2d_4">
      <g>
       <use xlink:href="#md617a998a7" x="598.557566" y="450.72" style="stroke: #000000; stroke-width: 0.8"/>
      </g>
     </g>
     <g id="text_4">
      <!-- 600 -->
      <g transform="translate(579.470066 472.916875)scale(0.2 -0.2)">
       <defs>
        <path id="DejaVuSans-36" d="M 2113 2584 
Q 1688 2584 1439 2293 
Q 1191 2003 1191 1497 
Q 1191 994 1439 701 
Q 1688 409 2113 409 
Q 2538 409 2786 701 
Q 3034 994 3034 1497 
Q 3034 2003 2786 2293 
Q 2538 2584 2113 2584 
z
M 3366 4563 
L 3366 3988 
Q 3128 4100 2886 4159 
Q 2644 4219 2406 4219 
Q 1781 4219 1451 3797 
Q 1122 3375 1075 2522 
Q 1259 2794 1537 2939 
Q 1816 3084 2150 3084 
Q 2853 3084 3261 2657 
Q 3669 2231 3669 1497 
Q 3669 778 3244 343 
Q 2819 -91 2113 -91 
Q 1303 -91 875 529 
Q 447 1150 447 2328 
Q 447 3434 972 4092 
Q 1497 4750 2381 4750 
Q 2619 4750 2861 4703 
Q 3103 4656 3366 4563 
z
" transform="scale(0.015625)"/>
       </defs>
       <use xlink:href="#DejaVuSans-36"/>
       <use xlink:href="#DejaVuSans-30" x="63.623047"/>
       <use xlink:href="#DejaVuSans-30" x="127.246094"/>
      </g>
     </g>
    </g>
    <g id="xtick_5">
     <g id="line2d_5">
      <g>
       <use xlink:href="#md617a998a7" x="761.700554" y="450.72" style="stroke: #000000; stroke-width: 0.8"/>
      </g>
     </g>
     <g id="text_5">
      <!-- 800 -->
      <g transform="translate(742.613054 472.916875)scale(0.2 -0.2)">
       <defs>
        <path id="DejaVuSans-38" d="M 2034 2216 
Q 1584 2216 1326 1975 
Q 1069 1734 1069 1313 
Q 1069 891 1326 650 
Q 1584 409 2034 409 
Q 2484 409 2743 651 
Q 3003 894 3003 1313 
Q 3003 1734 2745 1975 
Q 2488 2216 2034 2216 
z
M 1403 2484 
Q 997 2584 770 2862 
Q 544 3141 544 3541 
Q 544 4100 942 4425 
Q 1341 4750 2034 4750 
Q 2731 4750 3128 4425 
Q 3525 4100 3525 3541 
Q 3525 3141 3298 2862 
Q 3072 2584 2669 2484 
Q 3125 2378 3379 2068 
Q 3634 1759 3634 1313 
Q 3634 634 3220 271 
Q 2806 -91 2034 -91 
Q 1263 -91 848 271 
Q 434 634 434 1313 
Q 434 1759 690 2068 
Q 947 2378 1403 2484 
z
M 1172 3481 
Q 1172 3119 1398 2916 
Q 1625 2713 2034 2713 
Q 2441 2713 2670 2916 
Q 2900 3119 2900 3481 
Q 2900 3844 2670 4047 
Q 2441 4250 2034 4250 
Q 1625 4250 1398 4047 
Q 1172 3844 1172 3481 
z
" transform="scale(0.015625)"/>
       </defs>
       <use xlink:href="#DejaVuSans-38"/>
       <use xlink:href="#DejaVuSans-30" x="63.623047"/>
       <use xlink:href="#DejaVuSans-30" x="127.246094"/>
      </g>
     </g>
    </g>
    <g id="xtick_6">
     <g id="line2d_6">
      <g>
       <use xlink:href="#md617a998a7" x="924.843542" y="450.72" style="stroke: #000000; stroke-width: 0.8"/>
      </g>
     </g>
     <g id="text_6">
      <!-- 1000 -->
      <g transform="translate(899.393542 472.916875)scale(0.2 -0.2)">
       <defs>
        <path id="DejaVuSans-31" d="M 794 531 
L 1825 531 
L 1825 4091 
L 703 3866 
L 703 4441 
L 1819 4666 
L 2450 4666 
L 2450 531 
L 3481 531 
L 3481 0 
L 794 0 
L 794 531 
z
" transform="scale(0.015625)"/>
       </defs>
       <use xlink:href="#DejaVuSans-31"/>
       <use xlink:href="#DejaVuSans-30" x="63.623047"/>
       <use xlink:href="#DejaVuSans-30" x="127.246094"/>
       <use xlink:href="#DejaVuSans-30" x="190.869141"/>
      </g>
     </g>
    </g>
    <g id="text_7">
     <!-- Epochs -->
     <g transform="translate(479.93125 496.273125)scale(0.2 -0.2)">
      <defs>
       <path id="DejaVuSans-45" d="M 628 4666 
L 3578 4666 
L 3578 4134 
L 1259 4134 
L 1259 2753 
L 3481 2753 
L 3481 2222 
L 1259 2222 
L 1259 531 
L 3634 531 
L 3634 0 
L 628 0 
L 628 4666 
z
" transform="scale(0.015625)"/>
       <path id="DejaVuSans-70" d="M 1159 525 
L 1159 -1331 
L 581 -1331 
L 581 3500 
L 1159 3500 
L 1159 2969 
Q 1341 3281 1617 3432 
Q 1894 3584 2278 3584 
Q 2916 3584 3314 3078 
Q 3713 2572 3713 1747 
Q 3713 922 3314 415 
Q 2916 -91 2278 -91 
Q 1894 -91 1617 61 
Q 1341 213 1159 525 
z
M 3116 1747 
Q 3116 2381 2855 2742 
Q 2594 3103 2138 3103 
Q 1681 3103 1420 2742 
Q 1159 2381 1159 1747 
Q 1159 1113 1420 752 
Q 1681 391 2138 391 
Q 2594 391 2855 752 
Q 3116 1113 3116 1747 
z
" transform="scale(0.015625)"/>
       <path id="DejaVuSans-6f" d="M 1959 3097 
Q 1497 3097 1228 2736 
Q 959 2375 959 1747 
Q 959 1119 1226 758 
Q 1494 397 1959 397 
Q 2419 397 2687 759 
Q 2956 1122 2956 1747 
Q 2956 2369 2687 2733 
Q 2419 3097 1959 3097 
z
M 1959 3584 
Q 2709 3584 3137 3096 
Q 3566 2609 3566 1747 
Q 3566 888 3137 398 
Q 2709 -91 1959 -91 
Q 1206 -91 779 398 
Q 353 888 353 1747 
Q 353 2609 779 3096 
Q 1206 3584 1959 3584 
z
" transform="scale(0.015625)"/>
       <path id="DejaVuSans-63" d="M 3122 3366 
L 3122 2828 
Q 2878 2963 2633 3030 
Q 2388 3097 2138 3097 
Q 1578 3097 1268 2742 
Q 959 2388 959 1747 
Q 959 1106 1268 751 
Q 1578 397 2138 397 
Q 2388 397 2633 464 
Q 2878 531 3122 666 
L 3122 134 
Q 2881 22 2623 -34 
Q 2366 -91 2075 -91 
Q 1284 -91 818 406 
Q 353 903 353 1747 
Q 353 2603 823 3093 
Q 1294 3584 2113 3584 
Q 2378 3584 2631 3529 
Q 2884 3475 3122 3366 
z
" transform="scale(0.015625)"/>
       <path id="DejaVuSans-68" d="M 3513 2113 
L 3513 0 
L 2938 0 
L 2938 2094 
Q 2938 2591 2744 2837 
Q 2550 3084 2163 3084 
Q 1697 3084 1428 2787 
Q 1159 2491 1159 1978 
L 1159 0 
L 581 0 
L 581 4863 
L 1159 4863 
L 1159 2956 
Q 1366 3272 1645 3428 
Q 1925 3584 2291 3584 
Q 2894 3584 3203 3211 
Q 3513 2838 3513 2113 
z
" transform="scale(0.015625)"/>
       <path id="DejaVuSans-73" d="M 2834 3397 
L 2834 2853 
Q 2591 2978 2328 3040 
Q 2066 3103 1784 3103 
Q 1356 3103 1142 2972 
Q 928 2841 928 2578 
Q 928 2378 1081 2264 
Q 1234 2150 1697 2047 
L 1894 2003 
Q 2506 1872 2764 1633 
Q 3022 1394 3022 966 
Q 3022 478 2636 193 
Q 2250 -91 1575 -91 
Q 1294 -91 989 -36 
Q 684 19 347 128 
L 347 722 
Q 666 556 975 473 
Q 1284 391 1588 391 
Q 1994 391 2212 530 
Q 2431 669 2431 922 
Q 2431 1156 2273 1281 
Q 2116 1406 1581 1522 
L 1381 1569 
Q 847 1681 609 1914 
Q 372 2147 372 2553 
Q 372 3047 722 3315 
Q 1072 3584 1716 3584 
Q 2034 3584 2315 3537 
Q 2597 3491 2834 3397 
z
" transform="scale(0.015625)"/>
      </defs>
      <use xlink:href="#DejaVuSans-45"/>
      <use xlink:href="#DejaVuSans-70" x="63.183594"/>
      <use xlink:href="#DejaVuSans-6f" x="126.660156"/>
      <use xlink:href="#DejaVuSans-63" x="187.841797"/>
      <use xlink:href="#DejaVuSans-68" x="242.822266"/>
      <use xlink:href="#DejaVuSans-73" x="306.201172"/>
     </g>
    </g>
   </g>
   <g id="matplotlib.axis_2">
    <g id="ytick_1">
     <g id="line2d_7">
      <defs>
       <path id="m6957f522ce" d="M 0 0 
L -3.5 0 
" style="stroke: #000000; stroke-width: 0.8"/>
      </defs>
      <g>
       <use xlink:href="#m6957f522ce" x="69.3625" y="450.72" style="stroke: #000000; stroke-width: 0.8"/>
      </g>
     </g>
     <g id="text_8">
      <!-- 0.0 -->
      <g transform="translate(30.55625 458.318437)scale(0.2 -0.2)">
       <defs>
        <path id="DejaVuSans-2e" d="M 684 794 
L 1344 794 
L 1344 0 
L 684 0 
L 684 794 
z
" transform="scale(0.015625)"/>
       </defs>
       <use xlink:href="#DejaVuSans-30"/>
       <use xlink:href="#DejaVuSans-2e" x="63.623047"/>
       <use xlink:href="#DejaVuSans-30" x="95.410156"/>
      </g>
     </g>
    </g>
    <g id="ytick_2">
     <g id="line2d_8">
      <g>
       <use xlink:href="#m6957f522ce" x="69.3625" y="370.08" style="stroke: #000000; stroke-width: 0.8"/>
      </g>
     </g>
     <g id="text_9">
      <!-- 0.2 -->
      <g transform="translate(30.55625 377.678437)scale(0.2 -0.2)">
       <use xlink:href="#DejaVuSans-30"/>
       <use xlink:href="#DejaVuSans-2e" x="63.623047"/>
       <use xlink:href="#DejaVuSans-32" x="95.410156"/>
      </g>
     </g>
    </g>
    <g id="ytick_3">
     <g id="line2d_9">
      <g>
       <use xlink:href="#m6957f522ce" x="69.3625" y="289.44" style="stroke: #000000; stroke-width: 0.8"/>
      </g>
     </g>
     <g id="text_10">
      <!-- 0.4 -->
      <g transform="translate(30.55625 297.038437)scale(0.2 -0.2)">
       <use xlink:href="#DejaVuSans-30"/>
       <use xlink:href="#DejaVuSans-2e" x="63.623047"/>
       <use xlink:href="#DejaVuSans-34" x="95.410156"/>
      </g>
     </g>
    </g>
    <g id="ytick_4">
     <g id="line2d_10">
      <g>
       <use xlink:href="#m6957f522ce" x="69.3625" y="208.8" style="stroke: #000000; stroke-width: 0.8"/>
      </g>
     </g>
     <g id="text_11">
      <!-- 0.6 -->
      <g transform="translate(30.55625 216.398437)scale(0.2 -0.2)">
       <use xlink:href="#DejaVuSans-30"/>
       <use xlink:href="#DejaVuSans-2e" x="63.623047"/>
       <use xlink:href="#DejaVuSans-36" x="95.410156"/>
      </g>
     </g>
    </g>
    <g id="ytick_5">
     <g id="line2d_11">
      <g>
       <use xlink:href="#m6957f522ce" x="69.3625" y="128.16" style="stroke: #000000; stroke-width: 0.8"/>
      </g>
     </g>
     <g id="text_12">
      <!-- 0.8 -->
      <g transform="translate(30.55625 135.758437)scale(0.2 -0.2)">
       <use xlink:href="#DejaVuSans-30"/>
       <use xlink:href="#DejaVuSans-2e" x="63.623047"/>
       <use xlink:href="#DejaVuSans-38" x="95.410156"/>
      </g>
     </g>
    </g>
    <g id="ytick_6">
     <g id="line2d_12">
      <g>
       <use xlink:href="#m6957f522ce" x="69.3625" y="47.52" style="stroke: #000000; stroke-width: 0.8"/>
      </g>
     </g>
     <g id="text_13">
      <!-- 1.0 -->
      <g transform="translate(30.55625 55.118437)scale(0.2 -0.2)">
       <use xlink:href="#DejaVuSans-31"/>
       <use xlink:href="#DejaVuSans-2e" x="63.623047"/>
       <use xlink:href="#DejaVuSans-30" x="95.410156"/>
      </g>
     </g>
    </g>
    <g id="text_14">
     <!-- Validation accuracy -->
     <g transform="translate(22.396875 326.638125)rotate(-90)scale(0.2 -0.2)">
      <defs>
       <path id="DejaVuSans-56" d="M 1831 0 
L 50 4666 
L 709 4666 
L 2188 738 
L 3669 4666 
L 4325 4666 
L 2547 0 
L 1831 0 
z
" transform="scale(0.015625)"/>
       <path id="DejaVuSans-61" d="M 2194 1759 
Q 1497 1759 1228 1600 
Q 959 1441 959 1056 
Q 959 750 1161 570 
Q 1363 391 1709 391 
Q 2188 391 2477 730 
Q 2766 1069 2766 1631 
L 2766 1759 
L 2194 1759 
z
M 3341 1997 
L 3341 0 
L 2766 0 
L 2766 531 
Q 2569 213 2275 61 
Q 1981 -91 1556 -91 
Q 1019 -91 701 211 
Q 384 513 384 1019 
Q 384 1609 779 1909 
Q 1175 2209 1959 2209 
L 2766 2209 
L 2766 2266 
Q 2766 2663 2505 2880 
Q 2244 3097 1772 3097 
Q 1472 3097 1187 3025 
Q 903 2953 641 2809 
L 641 3341 
Q 956 3463 1253 3523 
Q 1550 3584 1831 3584 
Q 2591 3584 2966 3190 
Q 3341 2797 3341 1997 
z
" transform="scale(0.015625)"/>
       <path id="DejaVuSans-6c" d="M 603 4863 
L 1178 4863 
L 1178 0 
L 603 0 
L 603 4863 
z
" transform="scale(0.015625)"/>
       <path id="DejaVuSans-69" d="M 603 3500 
L 1178 3500 
L 1178 0 
L 603 0 
L 603 3500 
z
M 603 4863 
L 1178 4863 
L 1178 4134 
L 603 4134 
L 603 4863 
z
" transform="scale(0.015625)"/>
       <path id="DejaVuSans-64" d="M 2906 2969 
L 2906 4863 
L 3481 4863 
L 3481 0 
L 2906 0 
L 2906 525 
Q 2725 213 2448 61 
Q 2172 -91 1784 -91 
Q 1150 -91 751 415 
Q 353 922 353 1747 
Q 353 2572 751 3078 
Q 1150 3584 1784 3584 
Q 2172 3584 2448 3432 
Q 2725 3281 2906 2969 
z
M 947 1747 
Q 947 1113 1208 752 
Q 1469 391 1925 391 
Q 2381 391 2643 752 
Q 2906 1113 2906 1747 
Q 2906 2381 2643 2742 
Q 2381 3103 1925 3103 
Q 1469 3103 1208 2742 
Q 947 2381 947 1747 
z
" transform="scale(0.015625)"/>
       <path id="DejaVuSans-74" d="M 1172 4494 
L 1172 3500 
L 2356 3500 
L 2356 3053 
L 1172 3053 
L 1172 1153 
Q 1172 725 1289 603 
Q 1406 481 1766 481 
L 2356 481 
L 2356 0 
L 1766 0 
Q 1100 0 847 248 
Q 594 497 594 1153 
L 594 3053 
L 172 3053 
L 172 3500 
L 594 3500 
L 594 4494 
L 1172 4494 
z
" transform="scale(0.015625)"/>
       <path id="DejaVuSans-6e" d="M 3513 2113 
L 3513 0 
L 2938 0 
L 2938 2094 
Q 2938 2591 2744 2837 
Q 2550 3084 2163 3084 
Q 1697 3084 1428 2787 
Q 1159 2491 1159 1978 
L 1159 0 
L 581 0 
L 581 3500 
L 1159 3500 
L 1159 2956 
Q 1366 3272 1645 3428 
Q 1925 3584 2291 3584 
Q 2894 3584 3203 3211 
Q 3513 2838 3513 2113 
z
" transform="scale(0.015625)"/>
       <path id="DejaVuSans-20" transform="scale(0.015625)"/>
       <path id="DejaVuSans-75" d="M 544 1381 
L 544 3500 
L 1119 3500 
L 1119 1403 
Q 1119 906 1312 657 
Q 1506 409 1894 409 
Q 2359 409 2629 706 
Q 2900 1003 2900 1516 
L 2900 3500 
L 3475 3500 
L 3475 0 
L 2900 0 
L 2900 538 
Q 2691 219 2414 64 
Q 2138 -91 1772 -91 
Q 1169 -91 856 284 
Q 544 659 544 1381 
z
M 1991 3584 
L 1991 3584 
z
" transform="scale(0.015625)"/>
       <path id="DejaVuSans-72" d="M 2631 2963 
Q 2534 3019 2420 3045 
Q 2306 3072 2169 3072 
Q 1681 3072 1420 2755 
Q 1159 2438 1159 1844 
L 1159 0 
L 581 0 
L 581 3500 
L 1159 3500 
L 1159 2956 
Q 1341 3275 1631 3429 
Q 1922 3584 2338 3584 
Q 2397 3584 2469 3576 
Q 2541 3569 2628 3553 
L 2631 2963 
z
" transform="scale(0.015625)"/>
       <path id="DejaVuSans-79" d="M 2059 -325 
Q 1816 -950 1584 -1140 
Q 1353 -1331 966 -1331 
L 506 -1331 
L 506 -850 
L 844 -850 
Q 1081 -850 1212 -737 
Q 1344 -625 1503 -206 
L 1606 56 
L 191 3500 
L 800 3500 
L 1894 763 
L 2988 3500 
L 3597 3500 
L 2059 -325 
z
" transform="scale(0.015625)"/>
      </defs>
      <use xlink:href="#DejaVuSans-56"/>
      <use xlink:href="#DejaVuSans-61" x="60.658203"/>
      <use xlink:href="#DejaVuSans-6c" x="121.9375"/>
      <use xlink:href="#DejaVuSans-69" x="149.720703"/>
      <use xlink:href="#DejaVuSans-64" x="177.503906"/>
      <use xlink:href="#DejaVuSans-61" x="240.980469"/>
      <use xlink:href="#DejaVuSans-74" x="302.259766"/>
      <use xlink:href="#DejaVuSans-69" x="341.46875"/>
      <use xlink:href="#DejaVuSans-6f" x="369.251953"/>
      <use xlink:href="#DejaVuSans-6e" x="430.433594"/>
      <use xlink:href="#DejaVuSans-20" x="493.8125"/>
      <use xlink:href="#DejaVuSans-61" x="525.599609"/>
      <use xlink:href="#DejaVuSans-63" x="586.878906"/>
      <use xlink:href="#DejaVuSans-63" x="641.859375"/>
      <use xlink:href="#DejaVuSans-75" x="696.839844"/>
      <use xlink:href="#DejaVuSans-72" x="760.21875"/>
      <use xlink:href="#DejaVuSans-61" x="801.332031"/>
      <use xlink:href="#DejaVuSans-63" x="862.611328"/>
      <use xlink:href="#DejaVuSans-79" x="917.591797"/>
     </g>
    </g>
   </g>
   <g id="line2d_13">
    <path d="M 109.944318 302.484709 
L 114.022893 272.837646 
L 118.101468 302.484709 
L 122.180042 272.837646 
L 175.201513 272.837646 
L 179.280088 302.484709 
L 183.358663 272.837646 
L 224.14441 272.837646 
L 228.222984 302.484709 
L 232.301559 272.837646 
L 240.458708 272.837646 
L 244.537283 302.484709 
L 248.615858 272.837646 
L 269.008731 272.837646 
L 273.087306 302.484709 
L 277.165881 272.837646 
L 354.6588 272.837646 
L 358.737374 302.484709 
L 362.815949 272.837646 
L 375.051673 272.837646 
L 379.130248 302.484709 
L 383.208823 272.837646 
L 391.365972 272.837646 
L 395.444547 302.484709 
L 399.523121 272.837646 
L 411.758845 272.837646 
L 415.83742 302.484709 
L 419.915995 272.837646 
L 464.780316 272.837646 
L 468.858891 302.484709 
L 472.937466 272.837646 
L 481.094615 272.837646 
L 485.17319 302.484709 
L 489.251765 302.484709 
L 493.330339 272.837646 
L 517.801787 272.837646 
L 521.880362 302.484709 
L 525.958937 272.837646 
L 550.430385 272.837646 
L 554.50896 302.484709 
L 558.587534 272.837646 
L 566.744684 272.837646 
L 570.823258 302.484709 
L 574.901833 272.837646 
L 664.630476 272.837646 
L 668.709051 302.484709 
L 672.787626 272.837646 
L 685.02335 272.837646 
L 689.101924 302.484709 
L 693.180499 272.837646 
L 717.651947 272.837646 
L 721.730522 302.484709 
L 725.809097 272.837646 
L 774.751993 272.837646 
L 778.830568 302.484709 
L 782.909142 272.837646 
L 803.302016 272.837646 
L 807.38059 302.484709 
L 811.459165 272.837646 
L 868.559211 272.837646 
L 872.637786 302.484709 
L 876.71636 272.837646 
L 917.502107 272.837646 
L 921.580682 302.484709 
L 921.580682 302.484709 
" clip-path="url(#p1c11af22a1)" style="fill: none; stroke-dasharray: 5.55,2.4; stroke-dashoffset: 0; stroke: #ffa500; stroke-width: 1.5"/>
   </g>
   <g id="line2d_14">
    <path d="M 109.944318 302.484709 
L 114.022893 302.484709 
L 118.101468 272.837646 
L 122.180042 272.837646 
L 126.258617 302.484709 
L 130.337192 296.555291 
L 134.415766 195.755291 
L 138.494341 272.837646 
L 142.572916 272.837646 
L 146.65149 349.92 
L 150.730065 278.767063 
L 154.80864 249.12 
L 158.887214 290.625886 
L 162.965789 166.108228 
L 167.044364 278.767063 
L 171.122939 255.049417 
L 175.201513 302.484709 
L 179.280088 243.190583 
L 183.358663 172.037646 
L 187.437237 255.049417 
L 191.515812 272.837646 
L 195.594387 237.261165 
L 199.672961 219.472937 
L 203.751536 225.402354 
L 207.830111 255.049417 
L 211.908685 308.414114 
L 215.98726 225.402354 
L 220.065835 154.249417 
L 224.14441 243.190583 
L 228.222984 142.390583 
L 232.301559 266.90824 
L 236.380134 177.967063 
L 240.458708 266.90824 
L 244.537283 225.402354 
L 248.615858 272.837646 
L 252.694432 201.684709 
L 256.773007 177.967063 
L 260.851582 213.54352 
L 264.930156 183.89648 
L 269.008731 160.178835 
L 273.087306 160.178835 
L 277.165881 166.108228 
L 281.244455 160.178835 
L 285.32303 231.331772 
L 289.401605 172.037646 
L 293.480179 160.178835 
L 297.558754 189.825874 
L 301.637329 243.190583 
L 305.715903 189.825874 
L 309.794478 177.967063 
L 313.873053 355.849411 
L 317.951627 195.755291 
L 322.030202 166.108228 
L 326.108777 154.249417 
L 330.187352 154.249417 
L 334.265926 326.202354 
L 338.344501 154.249417 
L 342.423076 160.178835 
L 346.50165 237.261165 
L 350.580225 154.249417 
L 354.6588 160.178835 
L 358.737374 260.978823 
L 362.815949 260.978823 
L 366.894524 255.049417 
L 379.130248 272.837646 
L 921.580682 272.837646 
L 921.580682 272.837646 
" clip-path="url(#p1c11af22a1)" style="fill: none; stroke: #ff00ff; stroke-width: 1.5; stroke-linecap: square"/>
   </g>
   <g id="line2d_15">
    <path d="M 109.944318 272.837646 
L 130.337192 272.837646 
L 134.415766 302.484709 
L 138.494341 272.837646 
L 142.572916 272.837646 
L 146.65149 296.555291 
L 150.730065 278.767063 
L 154.80864 278.767063 
L 158.887214 266.90824 
L 162.965789 296.555291 
L 167.044364 272.837646 
L 171.122939 290.625886 
L 175.201513 272.837646 
L 179.280088 308.414114 
L 183.358663 308.414114 
L 187.437237 302.484709 
L 191.515812 272.837646 
L 195.594387 296.555291 
L 199.672961 296.555291 
L 203.751536 308.414114 
L 207.830111 343.990583 
L 211.908685 260.978823 
L 215.98726 243.190583 
L 220.065835 249.12 
L 224.14441 278.767063 
L 228.222984 266.90824 
L 232.301559 308.414114 
L 236.380134 302.484709 
L 240.458708 260.978823 
L 244.537283 249.12 
L 248.615858 278.767063 
L 252.694432 260.978823 
L 256.773007 249.12 
L 260.851582 290.625886 
L 264.930156 260.978823 
L 269.008731 249.12 
L 273.087306 260.978823 
L 277.165881 302.484709 
L 281.244455 249.12 
L 285.32303 266.90824 
L 289.401605 272.837646 
L 293.480179 290.625886 
L 301.637329 243.190583 
L 305.715903 308.414114 
L 309.794478 296.555291 
L 313.873053 278.767063 
L 317.951627 249.12 
L 322.030202 278.767063 
L 326.108777 219.472937 
L 330.187352 249.12 
L 334.265926 296.555291 
L 338.344501 332.13176 
L 342.423076 243.190583 
L 346.50165 302.484709 
L 350.580225 219.472937 
L 354.6588 255.049417 
L 358.737374 266.90824 
L 362.815949 302.484709 
L 366.894524 308.414114 
L 370.973098 237.261165 
L 375.051673 296.555291 
L 379.130248 278.767063 
L 383.208823 284.696468 
L 387.287397 243.190583 
L 391.365972 266.90824 
L 395.444547 255.049417 
L 399.523121 237.261165 
L 403.601696 308.414114 
L 407.680271 201.684709 
L 411.758845 266.90824 
L 415.83742 237.261165 
L 419.915995 219.472937 
L 423.994569 213.54352 
L 428.073144 249.12 
L 432.151719 225.402354 
L 436.230294 231.331772 
L 440.308868 284.696468 
L 444.387443 219.472937 
L 448.466018 219.472937 
L 452.544592 290.625886 
L 456.623167 296.555291 
L 460.701742 231.331772 
L 464.780316 207.614126 
L 468.858891 278.767063 
L 472.937466 213.54352 
L 477.01604 219.472937 
L 481.094615 278.767063 
L 485.17319 284.696468 
L 489.251765 272.837646 
L 493.330339 219.472937 
L 497.408914 207.614126 
L 501.487489 249.12 
L 505.566063 266.90824 
L 509.644638 207.614126 
L 513.723213 243.190583 
L 517.801787 290.625886 
L 521.880362 296.555291 
L 525.958937 308.414114 
L 530.037511 225.402354 
L 534.116086 243.190583 
L 538.194661 195.755291 
L 546.35181 266.90824 
L 550.430385 266.90824 
L 554.50896 260.978823 
L 558.587534 207.614126 
L 562.666109 219.472937 
L 566.744684 213.54352 
L 570.823258 243.190583 
L 574.901833 260.978823 
L 578.980408 255.049417 
L 583.058982 231.331772 
L 587.137557 249.12 
L 591.216132 213.54352 
L 595.294706 272.837646 
L 599.373281 219.472937 
L 603.451856 219.472937 
L 607.530431 207.614126 
L 611.609005 249.12 
L 615.68758 260.978823 
L 619.766155 189.825874 
L 623.844729 278.767063 
L 627.923304 278.767063 
L 632.001879 225.402354 
L 636.080453 266.90824 
L 640.159028 243.190583 
L 644.237603 201.684709 
L 648.316177 207.614126 
L 652.394752 272.837646 
L 656.473327 213.54352 
L 660.551902 219.472937 
L 664.630476 260.978823 
L 668.709051 219.472937 
L 672.787626 237.261165 
L 676.8662 290.625886 
L 680.944775 278.767063 
L 685.02335 207.614126 
L 689.101924 219.472937 
L 693.180499 296.555291 
L 697.259074 231.331772 
L 701.337648 189.825874 
L 705.416223 243.190583 
L 709.494798 207.614126 
L 713.573373 207.614126 
L 717.651947 195.755291 
L 721.730522 189.825874 
L 725.809097 260.978823 
L 729.887671 195.755291 
L 733.966246 278.767063 
L 738.044821 201.684709 
L 742.123395 243.190583 
L 746.20197 290.625886 
L 750.280545 177.967063 
L 754.359119 177.967063 
L 758.437694 189.825874 
L 762.516269 266.90824 
L 766.594844 249.12 
L 770.673418 201.684709 
L 774.751993 225.402354 
L 778.830568 207.614126 
L 782.909142 260.978823 
L 786.987717 260.978823 
L 791.066292 189.825874 
L 795.144866 266.90824 
L 799.223441 172.037646 
L 803.302016 189.825874 
L 807.38059 219.472937 
L 811.459165 243.190583 
L 819.616315 243.190583 
L 827.773464 183.89648 
L 831.852039 231.331772 
L 835.930613 219.472937 
L 840.009188 213.54352 
L 844.087763 189.825874 
L 848.166337 260.978823 
L 852.244912 213.54352 
L 856.323487 231.331772 
L 860.402061 272.837646 
L 864.480636 183.89648 
L 868.559211 172.037646 
L 872.637786 237.261165 
L 876.71636 189.825874 
L 880.794935 260.978823 
L 884.87351 201.684709 
L 888.952084 249.12 
L 893.030659 166.108228 
L 897.109234 260.978823 
L 901.187808 255.049417 
L 905.266383 172.037646 
L 909.344958 231.331772 
L 913.423532 166.108228 
L 917.502107 201.684709 
L 921.580682 266.90824 
L 921.580682 266.90824 
" clip-path="url(#p1c11af22a1)" style="fill: none; stroke: #008000; stroke-width: 1.5; stroke-linecap: square"/>
    <defs>
     <path id="m9256181ae2" d="M 0 1.5 
C 0.397805 1.5 0.77937 1.341951 1.06066 1.06066 
C 1.341951 0.77937 1.5 0.397805 1.5 0 
C 1.5 -0.397805 1.341951 -0.77937 1.06066 -1.06066 
C 0.77937 -1.341951 0.397805 -1.5 0 -1.5 
C -0.397805 -1.5 -0.77937 -1.341951 -1.06066 -1.06066 
C -1.341951 -0.77937 -1.5 -0.397805 -1.5 0 
C -1.5 0.397805 -1.341951 0.77937 -1.06066 1.06066 
C -0.77937 1.341951 -0.397805 1.5 0 1.5 
z
" style="stroke: #008000"/>
    </defs>
    <g clip-path="url(#p1c11af22a1)">
     <use xlink:href="#m9256181ae2" x="109.944318" y="272.837646" style="fill: #008000; stroke: #008000"/>
     <use xlink:href="#m9256181ae2" x="114.022893" y="272.837646" style="fill: #008000; stroke: #008000"/>
     <use xlink:href="#m9256181ae2" x="118.101468" y="272.837646" style="fill: #008000; stroke: #008000"/>
     <use xlink:href="#m9256181ae2" x="122.180042" y="272.837646" style="fill: #008000; stroke: #008000"/>
     <use xlink:href="#m9256181ae2" x="126.258617" y="272.837646" style="fill: #008000; stroke: #008000"/>
     <use xlink:href="#m9256181ae2" x="130.337192" y="272.837646" style="fill: #008000; stroke: #008000"/>
     <use xlink:href="#m9256181ae2" x="134.415766" y="302.484709" style="fill: #008000; stroke: #008000"/>
     <use xlink:href="#m9256181ae2" x="138.494341" y="272.837646" style="fill: #008000; stroke: #008000"/>
     <use xlink:href="#m9256181ae2" x="142.572916" y="272.837646" style="fill: #008000; stroke: #008000"/>
     <use xlink:href="#m9256181ae2" x="146.65149" y="296.555291" style="fill: #008000; stroke: #008000"/>
     <use xlink:href="#m9256181ae2" x="150.730065" y="278.767063" style="fill: #008000; stroke: #008000"/>
     <use xlink:href="#m9256181ae2" x="154.80864" y="278.767063" style="fill: #008000; stroke: #008000"/>
     <use xlink:href="#m9256181ae2" x="158.887214" y="266.90824" style="fill: #008000; stroke: #008000"/>
     <use xlink:href="#m9256181ae2" x="162.965789" y="296.555291" style="fill: #008000; stroke: #008000"/>
     <use xlink:href="#m9256181ae2" x="167.044364" y="272.837646" style="fill: #008000; stroke: #008000"/>
     <use xlink:href="#m9256181ae2" x="171.122939" y="290.625886" style="fill: #008000; stroke: #008000"/>
     <use xlink:href="#m9256181ae2" x="175.201513" y="272.837646" style="fill: #008000; stroke: #008000"/>
     <use xlink:href="#m9256181ae2" x="179.280088" y="308.414114" style="fill: #008000; stroke: #008000"/>
     <use xlink:href="#m9256181ae2" x="183.358663" y="308.414114" style="fill: #008000; stroke: #008000"/>
     <use xlink:href="#m9256181ae2" x="187.437237" y="302.484709" style="fill: #008000; stroke: #008000"/>
     <use xlink:href="#m9256181ae2" x="191.515812" y="272.837646" style="fill: #008000; stroke: #008000"/>
     <use xlink:href="#m9256181ae2" x="195.594387" y="296.555291" style="fill: #008000; stroke: #008000"/>
     <use xlink:href="#m9256181ae2" x="199.672961" y="296.555291" style="fill: #008000; stroke: #008000"/>
     <use xlink:href="#m9256181ae2" x="203.751536" y="308.414114" style="fill: #008000; stroke: #008000"/>
     <use xlink:href="#m9256181ae2" x="207.830111" y="343.990583" style="fill: #008000; stroke: #008000"/>
     <use xlink:href="#m9256181ae2" x="211.908685" y="260.978823" style="fill: #008000; stroke: #008000"/>
     <use xlink:href="#m9256181ae2" x="215.98726" y="243.190583" style="fill: #008000; stroke: #008000"/>
     <use xlink:href="#m9256181ae2" x="220.065835" y="249.12" style="fill: #008000; stroke: #008000"/>
     <use xlink:href="#m9256181ae2" x="224.14441" y="278.767063" style="fill: #008000; stroke: #008000"/>
     <use xlink:href="#m9256181ae2" x="228.222984" y="266.90824" style="fill: #008000; stroke: #008000"/>
     <use xlink:href="#m9256181ae2" x="232.301559" y="308.414114" style="fill: #008000; stroke: #008000"/>
     <use xlink:href="#m9256181ae2" x="236.380134" y="302.484709" style="fill: #008000; stroke: #008000"/>
     <use xlink:href="#m9256181ae2" x="240.458708" y="260.978823" style="fill: #008000; stroke: #008000"/>
     <use xlink:href="#m9256181ae2" x="244.537283" y="249.12" style="fill: #008000; stroke: #008000"/>
     <use xlink:href="#m9256181ae2" x="248.615858" y="278.767063" style="fill: #008000; stroke: #008000"/>
     <use xlink:href="#m9256181ae2" x="252.694432" y="260.978823" style="fill: #008000; stroke: #008000"/>
     <use xlink:href="#m9256181ae2" x="256.773007" y="249.12" style="fill: #008000; stroke: #008000"/>
     <use xlink:href="#m9256181ae2" x="260.851582" y="290.625886" style="fill: #008000; stroke: #008000"/>
     <use xlink:href="#m9256181ae2" x="264.930156" y="260.978823" style="fill: #008000; stroke: #008000"/>
     <use xlink:href="#m9256181ae2" x="269.008731" y="249.12" style="fill: #008000; stroke: #008000"/>
     <use xlink:href="#m9256181ae2" x="273.087306" y="260.978823" style="fill: #008000; stroke: #008000"/>
     <use xlink:href="#m9256181ae2" x="277.165881" y="302.484709" style="fill: #008000; stroke: #008000"/>
     <use xlink:href="#m9256181ae2" x="281.244455" y="249.12" style="fill: #008000; stroke: #008000"/>
     <use xlink:href="#m9256181ae2" x="285.32303" y="266.90824" style="fill: #008000; stroke: #008000"/>
     <use xlink:href="#m9256181ae2" x="289.401605" y="272.837646" style="fill: #008000; stroke: #008000"/>
     <use xlink:href="#m9256181ae2" x="293.480179" y="290.625886" style="fill: #008000; stroke: #008000"/>
     <use xlink:href="#m9256181ae2" x="297.558754" y="266.90824" style="fill: #008000; stroke: #008000"/>
     <use xlink:href="#m9256181ae2" x="301.637329" y="243.190583" style="fill: #008000; stroke: #008000"/>
     <use xlink:href="#m9256181ae2" x="305.715903" y="308.414114" style="fill: #008000; stroke: #008000"/>
     <use xlink:href="#m9256181ae2" x="309.794478" y="296.555291" style="fill: #008000; stroke: #008000"/>
     <use xlink:href="#m9256181ae2" x="313.873053" y="278.767063" style="fill: #008000; stroke: #008000"/>
     <use xlink:href="#m9256181ae2" x="317.951627" y="249.12" style="fill: #008000; stroke: #008000"/>
     <use xlink:href="#m9256181ae2" x="322.030202" y="278.767063" style="fill: #008000; stroke: #008000"/>
     <use xlink:href="#m9256181ae2" x="326.108777" y="219.472937" style="fill: #008000; stroke: #008000"/>
     <use xlink:href="#m9256181ae2" x="330.187352" y="249.12" style="fill: #008000; stroke: #008000"/>
     <use xlink:href="#m9256181ae2" x="334.265926" y="296.555291" style="fill: #008000; stroke: #008000"/>
     <use xlink:href="#m9256181ae2" x="338.344501" y="332.13176" style="fill: #008000; stroke: #008000"/>
     <use xlink:href="#m9256181ae2" x="342.423076" y="243.190583" style="fill: #008000; stroke: #008000"/>
     <use xlink:href="#m9256181ae2" x="346.50165" y="302.484709" style="fill: #008000; stroke: #008000"/>
     <use xlink:href="#m9256181ae2" x="350.580225" y="219.472937" style="fill: #008000; stroke: #008000"/>
     <use xlink:href="#m9256181ae2" x="354.6588" y="255.049417" style="fill: #008000; stroke: #008000"/>
     <use xlink:href="#m9256181ae2" x="358.737374" y="266.90824" style="fill: #008000; stroke: #008000"/>
     <use xlink:href="#m9256181ae2" x="362.815949" y="302.484709" style="fill: #008000; stroke: #008000"/>
     <use xlink:href="#m9256181ae2" x="366.894524" y="308.414114" style="fill: #008000; stroke: #008000"/>
     <use xlink:href="#m9256181ae2" x="370.973098" y="237.261165" style="fill: #008000; stroke: #008000"/>
     <use xlink:href="#m9256181ae2" x="375.051673" y="296.555291" style="fill: #008000; stroke: #008000"/>
     <use xlink:href="#m9256181ae2" x="379.130248" y="278.767063" style="fill: #008000; stroke: #008000"/>
     <use xlink:href="#m9256181ae2" x="383.208823" y="284.696468" style="fill: #008000; stroke: #008000"/>
     <use xlink:href="#m9256181ae2" x="387.287397" y="243.190583" style="fill: #008000; stroke: #008000"/>
     <use xlink:href="#m9256181ae2" x="391.365972" y="266.90824" style="fill: #008000; stroke: #008000"/>
     <use xlink:href="#m9256181ae2" x="395.444547" y="255.049417" style="fill: #008000; stroke: #008000"/>
     <use xlink:href="#m9256181ae2" x="399.523121" y="237.261165" style="fill: #008000; stroke: #008000"/>
     <use xlink:href="#m9256181ae2" x="403.601696" y="308.414114" style="fill: #008000; stroke: #008000"/>
     <use xlink:href="#m9256181ae2" x="407.680271" y="201.684709" style="fill: #008000; stroke: #008000"/>
     <use xlink:href="#m9256181ae2" x="411.758845" y="266.90824" style="fill: #008000; stroke: #008000"/>
     <use xlink:href="#m9256181ae2" x="415.83742" y="237.261165" style="fill: #008000; stroke: #008000"/>
     <use xlink:href="#m9256181ae2" x="419.915995" y="219.472937" style="fill: #008000; stroke: #008000"/>
     <use xlink:href="#m9256181ae2" x="423.994569" y="213.54352" style="fill: #008000; stroke: #008000"/>
     <use xlink:href="#m9256181ae2" x="428.073144" y="249.12" style="fill: #008000; stroke: #008000"/>
     <use xlink:href="#m9256181ae2" x="432.151719" y="225.402354" style="fill: #008000; stroke: #008000"/>
     <use xlink:href="#m9256181ae2" x="436.230294" y="231.331772" style="fill: #008000; stroke: #008000"/>
     <use xlink:href="#m9256181ae2" x="440.308868" y="284.696468" style="fill: #008000; stroke: #008000"/>
     <use xlink:href="#m9256181ae2" x="444.387443" y="219.472937" style="fill: #008000; stroke: #008000"/>
     <use xlink:href="#m9256181ae2" x="448.466018" y="219.472937" style="fill: #008000; stroke: #008000"/>
     <use xlink:href="#m9256181ae2" x="452.544592" y="290.625886" style="fill: #008000; stroke: #008000"/>
     <use xlink:href="#m9256181ae2" x="456.623167" y="296.555291" style="fill: #008000; stroke: #008000"/>
     <use xlink:href="#m9256181ae2" x="460.701742" y="231.331772" style="fill: #008000; stroke: #008000"/>
     <use xlink:href="#m9256181ae2" x="464.780316" y="207.614126" style="fill: #008000; stroke: #008000"/>
     <use xlink:href="#m9256181ae2" x="468.858891" y="278.767063" style="fill: #008000; stroke: #008000"/>
     <use xlink:href="#m9256181ae2" x="472.937466" y="213.54352" style="fill: #008000; stroke: #008000"/>
     <use xlink:href="#m9256181ae2" x="477.01604" y="219.472937" style="fill: #008000; stroke: #008000"/>
     <use xlink:href="#m9256181ae2" x="481.094615" y="278.767063" style="fill: #008000; stroke: #008000"/>
     <use xlink:href="#m9256181ae2" x="485.17319" y="284.696468" style="fill: #008000; stroke: #008000"/>
     <use xlink:href="#m9256181ae2" x="489.251765" y="272.837646" style="fill: #008000; stroke: #008000"/>
     <use xlink:href="#m9256181ae2" x="493.330339" y="219.472937" style="fill: #008000; stroke: #008000"/>
     <use xlink:href="#m9256181ae2" x="497.408914" y="207.614126" style="fill: #008000; stroke: #008000"/>
     <use xlink:href="#m9256181ae2" x="501.487489" y="249.12" style="fill: #008000; stroke: #008000"/>
     <use xlink:href="#m9256181ae2" x="505.566063" y="266.90824" style="fill: #008000; stroke: #008000"/>
     <use xlink:href="#m9256181ae2" x="509.644638" y="207.614126" style="fill: #008000; stroke: #008000"/>
     <use xlink:href="#m9256181ae2" x="513.723213" y="243.190583" style="fill: #008000; stroke: #008000"/>
     <use xlink:href="#m9256181ae2" x="517.801787" y="290.625886" style="fill: #008000; stroke: #008000"/>
     <use xlink:href="#m9256181ae2" x="521.880362" y="296.555291" style="fill: #008000; stroke: #008000"/>
     <use xlink:href="#m9256181ae2" x="525.958937" y="308.414114" style="fill: #008000; stroke: #008000"/>
     <use xlink:href="#m9256181ae2" x="530.037511" y="225.402354" style="fill: #008000; stroke: #008000"/>
     <use xlink:href="#m9256181ae2" x="534.116086" y="243.190583" style="fill: #008000; stroke: #008000"/>
     <use xlink:href="#m9256181ae2" x="538.194661" y="195.755291" style="fill: #008000; stroke: #008000"/>
     <use xlink:href="#m9256181ae2" x="542.273235" y="231.331772" style="fill: #008000; stroke: #008000"/>
     <use xlink:href="#m9256181ae2" x="546.35181" y="266.90824" style="fill: #008000; stroke: #008000"/>
     <use xlink:href="#m9256181ae2" x="550.430385" y="266.90824" style="fill: #008000; stroke: #008000"/>
     <use xlink:href="#m9256181ae2" x="554.50896" y="260.978823" style="fill: #008000; stroke: #008000"/>
     <use xlink:href="#m9256181ae2" x="558.587534" y="207.614126" style="fill: #008000; stroke: #008000"/>
     <use xlink:href="#m9256181ae2" x="562.666109" y="219.472937" style="fill: #008000; stroke: #008000"/>
     <use xlink:href="#m9256181ae2" x="566.744684" y="213.54352" style="fill: #008000; stroke: #008000"/>
     <use xlink:href="#m9256181ae2" x="570.823258" y="243.190583" style="fill: #008000; stroke: #008000"/>
     <use xlink:href="#m9256181ae2" x="574.901833" y="260.978823" style="fill: #008000; stroke: #008000"/>
     <use xlink:href="#m9256181ae2" x="578.980408" y="255.049417" style="fill: #008000; stroke: #008000"/>
     <use xlink:href="#m9256181ae2" x="583.058982" y="231.331772" style="fill: #008000; stroke: #008000"/>
     <use xlink:href="#m9256181ae2" x="587.137557" y="249.12" style="fill: #008000; stroke: #008000"/>
     <use xlink:href="#m9256181ae2" x="591.216132" y="213.54352" style="fill: #008000; stroke: #008000"/>
     <use xlink:href="#m9256181ae2" x="595.294706" y="272.837646" style="fill: #008000; stroke: #008000"/>
     <use xlink:href="#m9256181ae2" x="599.373281" y="219.472937" style="fill: #008000; stroke: #008000"/>
     <use xlink:href="#m9256181ae2" x="603.451856" y="219.472937" style="fill: #008000; stroke: #008000"/>
     <use xlink:href="#m9256181ae2" x="607.530431" y="207.614126" style="fill: #008000; stroke: #008000"/>
     <use xlink:href="#m9256181ae2" x="611.609005" y="249.12" style="fill: #008000; stroke: #008000"/>
     <use xlink:href="#m9256181ae2" x="615.68758" y="260.978823" style="fill: #008000; stroke: #008000"/>
     <use xlink:href="#m9256181ae2" x="619.766155" y="189.825874" style="fill: #008000; stroke: #008000"/>
     <use xlink:href="#m9256181ae2" x="623.844729" y="278.767063" style="fill: #008000; stroke: #008000"/>
     <use xlink:href="#m9256181ae2" x="627.923304" y="278.767063" style="fill: #008000; stroke: #008000"/>
     <use xlink:href="#m9256181ae2" x="632.001879" y="225.402354" style="fill: #008000; stroke: #008000"/>
     <use xlink:href="#m9256181ae2" x="636.080453" y="266.90824" style="fill: #008000; stroke: #008000"/>
     <use xlink:href="#m9256181ae2" x="640.159028" y="243.190583" style="fill: #008000; stroke: #008000"/>
     <use xlink:href="#m9256181ae2" x="644.237603" y="201.684709" style="fill: #008000; stroke: #008000"/>
     <use xlink:href="#m9256181ae2" x="648.316177" y="207.614126" style="fill: #008000; stroke: #008000"/>
     <use xlink:href="#m9256181ae2" x="652.394752" y="272.837646" style="fill: #008000; stroke: #008000"/>
     <use xlink:href="#m9256181ae2" x="656.473327" y="213.54352" style="fill: #008000; stroke: #008000"/>
     <use xlink:href="#m9256181ae2" x="660.551902" y="219.472937" style="fill: #008000; stroke: #008000"/>
     <use xlink:href="#m9256181ae2" x="664.630476" y="260.978823" style="fill: #008000; stroke: #008000"/>
     <use xlink:href="#m9256181ae2" x="668.709051" y="219.472937" style="fill: #008000; stroke: #008000"/>
     <use xlink:href="#m9256181ae2" x="672.787626" y="237.261165" style="fill: #008000; stroke: #008000"/>
     <use xlink:href="#m9256181ae2" x="676.8662" y="290.625886" style="fill: #008000; stroke: #008000"/>
     <use xlink:href="#m9256181ae2" x="680.944775" y="278.767063" style="fill: #008000; stroke: #008000"/>
     <use xlink:href="#m9256181ae2" x="685.02335" y="207.614126" style="fill: #008000; stroke: #008000"/>
     <use xlink:href="#m9256181ae2" x="689.101924" y="219.472937" style="fill: #008000; stroke: #008000"/>
     <use xlink:href="#m9256181ae2" x="693.180499" y="296.555291" style="fill: #008000; stroke: #008000"/>
     <use xlink:href="#m9256181ae2" x="697.259074" y="231.331772" style="fill: #008000; stroke: #008000"/>
     <use xlink:href="#m9256181ae2" x="701.337648" y="189.825874" style="fill: #008000; stroke: #008000"/>
     <use xlink:href="#m9256181ae2" x="705.416223" y="243.190583" style="fill: #008000; stroke: #008000"/>
     <use xlink:href="#m9256181ae2" x="709.494798" y="207.614126" style="fill: #008000; stroke: #008000"/>
     <use xlink:href="#m9256181ae2" x="713.573373" y="207.614126" style="fill: #008000; stroke: #008000"/>
     <use xlink:href="#m9256181ae2" x="717.651947" y="195.755291" style="fill: #008000; stroke: #008000"/>
     <use xlink:href="#m9256181ae2" x="721.730522" y="189.825874" style="fill: #008000; stroke: #008000"/>
     <use xlink:href="#m9256181ae2" x="725.809097" y="260.978823" style="fill: #008000; stroke: #008000"/>
     <use xlink:href="#m9256181ae2" x="729.887671" y="195.755291" style="fill: #008000; stroke: #008000"/>
     <use xlink:href="#m9256181ae2" x="733.966246" y="278.767063" style="fill: #008000; stroke: #008000"/>
     <use xlink:href="#m9256181ae2" x="738.044821" y="201.684709" style="fill: #008000; stroke: #008000"/>
     <use xlink:href="#m9256181ae2" x="742.123395" y="243.190583" style="fill: #008000; stroke: #008000"/>
     <use xlink:href="#m9256181ae2" x="746.20197" y="290.625886" style="fill: #008000; stroke: #008000"/>
     <use xlink:href="#m9256181ae2" x="750.280545" y="177.967063" style="fill: #008000; stroke: #008000"/>
     <use xlink:href="#m9256181ae2" x="754.359119" y="177.967063" style="fill: #008000; stroke: #008000"/>
     <use xlink:href="#m9256181ae2" x="758.437694" y="189.825874" style="fill: #008000; stroke: #008000"/>
     <use xlink:href="#m9256181ae2" x="762.516269" y="266.90824" style="fill: #008000; stroke: #008000"/>
     <use xlink:href="#m9256181ae2" x="766.594844" y="249.12" style="fill: #008000; stroke: #008000"/>
     <use xlink:href="#m9256181ae2" x="770.673418" y="201.684709" style="fill: #008000; stroke: #008000"/>
     <use xlink:href="#m9256181ae2" x="774.751993" y="225.402354" style="fill: #008000; stroke: #008000"/>
     <use xlink:href="#m9256181ae2" x="778.830568" y="207.614126" style="fill: #008000; stroke: #008000"/>
     <use xlink:href="#m9256181ae2" x="782.909142" y="260.978823" style="fill: #008000; stroke: #008000"/>
     <use xlink:href="#m9256181ae2" x="786.987717" y="260.978823" style="fill: #008000; stroke: #008000"/>
     <use xlink:href="#m9256181ae2" x="791.066292" y="189.825874" style="fill: #008000; stroke: #008000"/>
     <use xlink:href="#m9256181ae2" x="795.144866" y="266.90824" style="fill: #008000; stroke: #008000"/>
     <use xlink:href="#m9256181ae2" x="799.223441" y="172.037646" style="fill: #008000; stroke: #008000"/>
     <use xlink:href="#m9256181ae2" x="803.302016" y="189.825874" style="fill: #008000; stroke: #008000"/>
     <use xlink:href="#m9256181ae2" x="807.38059" y="219.472937" style="fill: #008000; stroke: #008000"/>
     <use xlink:href="#m9256181ae2" x="811.459165" y="243.190583" style="fill: #008000; stroke: #008000"/>
     <use xlink:href="#m9256181ae2" x="815.53774" y="243.190583" style="fill: #008000; stroke: #008000"/>
     <use xlink:href="#m9256181ae2" x="819.616315" y="243.190583" style="fill: #008000; stroke: #008000"/>
     <use xlink:href="#m9256181ae2" x="823.694889" y="213.54352" style="fill: #008000; stroke: #008000"/>
     <use xlink:href="#m9256181ae2" x="827.773464" y="183.89648" style="fill: #008000; stroke: #008000"/>
     <use xlink:href="#m9256181ae2" x="831.852039" y="231.331772" style="fill: #008000; stroke: #008000"/>
     <use xlink:href="#m9256181ae2" x="835.930613" y="219.472937" style="fill: #008000; stroke: #008000"/>
     <use xlink:href="#m9256181ae2" x="840.009188" y="213.54352" style="fill: #008000; stroke: #008000"/>
     <use xlink:href="#m9256181ae2" x="844.087763" y="189.825874" style="fill: #008000; stroke: #008000"/>
     <use xlink:href="#m9256181ae2" x="848.166337" y="260.978823" style="fill: #008000; stroke: #008000"/>
     <use xlink:href="#m9256181ae2" x="852.244912" y="213.54352" style="fill: #008000; stroke: #008000"/>
     <use xlink:href="#m9256181ae2" x="856.323487" y="231.331772" style="fill: #008000; stroke: #008000"/>
     <use xlink:href="#m9256181ae2" x="860.402061" y="272.837646" style="fill: #008000; stroke: #008000"/>
     <use xlink:href="#m9256181ae2" x="864.480636" y="183.89648" style="fill: #008000; stroke: #008000"/>
     <use xlink:href="#m9256181ae2" x="868.559211" y="172.037646" style="fill: #008000; stroke: #008000"/>
     <use xlink:href="#m9256181ae2" x="872.637786" y="237.261165" style="fill: #008000; stroke: #008000"/>
     <use xlink:href="#m9256181ae2" x="876.71636" y="189.825874" style="fill: #008000; stroke: #008000"/>
     <use xlink:href="#m9256181ae2" x="880.794935" y="260.978823" style="fill: #008000; stroke: #008000"/>
     <use xlink:href="#m9256181ae2" x="884.87351" y="201.684709" style="fill: #008000; stroke: #008000"/>
     <use xlink:href="#m9256181ae2" x="888.952084" y="249.12" style="fill: #008000; stroke: #008000"/>
     <use xlink:href="#m9256181ae2" x="893.030659" y="166.108228" style="fill: #008000; stroke: #008000"/>
     <use xlink:href="#m9256181ae2" x="897.109234" y="260.978823" style="fill: #008000; stroke: #008000"/>
     <use xlink:href="#m9256181ae2" x="901.187808" y="255.049417" style="fill: #008000; stroke: #008000"/>
     <use xlink:href="#m9256181ae2" x="905.266383" y="172.037646" style="fill: #008000; stroke: #008000"/>
     <use xlink:href="#m9256181ae2" x="909.344958" y="231.331772" style="fill: #008000; stroke: #008000"/>
     <use xlink:href="#m9256181ae2" x="913.423532" y="166.108228" style="fill: #008000; stroke: #008000"/>
     <use xlink:href="#m9256181ae2" x="917.502107" y="201.684709" style="fill: #008000; stroke: #008000"/>
     <use xlink:href="#m9256181ae2" x="921.580682" y="266.90824" style="fill: #008000; stroke: #008000"/>
    </g>
   </g>
   <g id="patch_3">
    <path d="M 69.3625 450.72 
L 69.3625 7.2 
" style="fill: none; stroke: #000000; stroke-width: 0.8; stroke-linejoin: miter; stroke-linecap: square"/>
   </g>
   <g id="patch_4">
    <path d="M 962.1625 450.72 
L 962.1625 7.2 
" style="fill: none; stroke: #000000; stroke-width: 0.8; stroke-linejoin: miter; stroke-linecap: square"/>
   </g>
   <g id="patch_5">
    <path d="M 69.3625 450.72 
L 962.1625 450.72 
" style="fill: none; stroke: #000000; stroke-width: 0.8; stroke-linejoin: miter; stroke-linecap: square"/>
   </g>
   <g id="patch_6">
    <path d="M 69.3625 7.2 
L 962.1625 7.2 
" style="fill: none; stroke: #000000; stroke-width: 0.8; stroke-linejoin: miter; stroke-linecap: square"/>
   </g>
   <g id="legend_1">
    <g id="patch_7">
     <path d="M 668.859375 111.26875 
L 948.1625 111.26875 
Q 952.1625 111.26875 952.1625 107.26875 
L 952.1625 21.2 
Q 952.1625 17.2 948.1625 17.2 
L 668.859375 17.2 
Q 664.859375 17.2 664.859375 21.2 
L 664.859375 107.26875 
Q 664.859375 111.26875 668.859375 111.26875 
z
" style="fill: #ffffff; opacity: 0.8; stroke: #cccccc; stroke-linejoin: miter"/>
    </g>
    <g id="line2d_16">
     <path d="M 672.859375 33.396875 
L 692.859375 33.396875 
L 712.859375 33.396875 
" style="fill: none; stroke-dasharray: 5.55,2.4; stroke-dashoffset: 0; stroke: #ffa500; stroke-width: 1.5"/>
    </g>
    <g id="text_15">
     <!-- learning rate = 0.1 -->
     <g transform="translate(728.859375 40.396875)scale(0.2 -0.2)">
      <defs>
       <path id="DejaVuSans-65" d="M 3597 1894 
L 3597 1613 
L 953 1613 
Q 991 1019 1311 708 
Q 1631 397 2203 397 
Q 2534 397 2845 478 
Q 3156 559 3463 722 
L 3463 178 
Q 3153 47 2828 -22 
Q 2503 -91 2169 -91 
Q 1331 -91 842 396 
Q 353 884 353 1716 
Q 353 2575 817 3079 
Q 1281 3584 2069 3584 
Q 2775 3584 3186 3129 
Q 3597 2675 3597 1894 
z
M 3022 2063 
Q 3016 2534 2758 2815 
Q 2500 3097 2075 3097 
Q 1594 3097 1305 2825 
Q 1016 2553 972 2059 
L 3022 2063 
z
" transform="scale(0.015625)"/>
       <path id="DejaVuSans-67" d="M 2906 1791 
Q 2906 2416 2648 2759 
Q 2391 3103 1925 3103 
Q 1463 3103 1205 2759 
Q 947 2416 947 1791 
Q 947 1169 1205 825 
Q 1463 481 1925 481 
Q 2391 481 2648 825 
Q 2906 1169 2906 1791 
z
M 3481 434 
Q 3481 -459 3084 -895 
Q 2688 -1331 1869 -1331 
Q 1566 -1331 1297 -1286 
Q 1028 -1241 775 -1147 
L 775 -588 
Q 1028 -725 1275 -790 
Q 1522 -856 1778 -856 
Q 2344 -856 2625 -561 
Q 2906 -266 2906 331 
L 2906 616 
Q 2728 306 2450 153 
Q 2172 0 1784 0 
Q 1141 0 747 490 
Q 353 981 353 1791 
Q 353 2603 747 3093 
Q 1141 3584 1784 3584 
Q 2172 3584 2450 3431 
Q 2728 3278 2906 2969 
L 2906 3500 
L 3481 3500 
L 3481 434 
z
" transform="scale(0.015625)"/>
       <path id="DejaVuSans-3d" d="M 678 2906 
L 4684 2906 
L 4684 2381 
L 678 2381 
L 678 2906 
z
M 678 1631 
L 4684 1631 
L 4684 1100 
L 678 1100 
L 678 1631 
z
" transform="scale(0.015625)"/>
      </defs>
      <use xlink:href="#DejaVuSans-6c"/>
      <use xlink:href="#DejaVuSans-65" x="27.783203"/>
      <use xlink:href="#DejaVuSans-61" x="89.306641"/>
      <use xlink:href="#DejaVuSans-72" x="150.585938"/>
      <use xlink:href="#DejaVuSans-6e" x="189.949219"/>
      <use xlink:href="#DejaVuSans-69" x="253.328125"/>
      <use xlink:href="#DejaVuSans-6e" x="281.111328"/>
      <use xlink:href="#DejaVuSans-67" x="344.490234"/>
      <use xlink:href="#DejaVuSans-20" x="407.966797"/>
      <use xlink:href="#DejaVuSans-72" x="439.753906"/>
      <use xlink:href="#DejaVuSans-61" x="480.867188"/>
      <use xlink:href="#DejaVuSans-74" x="542.146484"/>
      <use xlink:href="#DejaVuSans-65" x="581.355469"/>
      <use xlink:href="#DejaVuSans-20" x="642.878906"/>
      <use xlink:href="#DejaVuSans-3d" x="674.666016"/>
      <use xlink:href="#DejaVuSans-20" x="758.455078"/>
      <use xlink:href="#DejaVuSans-30" x="790.242188"/>
      <use xlink:href="#DejaVuSans-2e" x="853.865234"/>
      <use xlink:href="#DejaVuSans-31" x="885.652344"/>
     </g>
    </g>
    <g id="line2d_17">
     <path d="M 672.859375 62.753125 
L 692.859375 62.753125 
L 712.859375 62.753125 
" style="fill: none; stroke: #ff00ff; stroke-width: 1.5; stroke-linecap: square"/>
    </g>
    <g id="text_16">
     <!-- learning rate = 0.01 -->
     <g transform="translate(728.859375 69.753125)scale(0.2 -0.2)">
      <use xlink:href="#DejaVuSans-6c"/>
      <use xlink:href="#DejaVuSans-65" x="27.783203"/>
      <use xlink:href="#DejaVuSans-61" x="89.306641"/>
      <use xlink:href="#DejaVuSans-72" x="150.585938"/>
      <use xlink:href="#DejaVuSans-6e" x="189.949219"/>
      <use xlink:href="#DejaVuSans-69" x="253.328125"/>
      <use xlink:href="#DejaVuSans-6e" x="281.111328"/>
      <use xlink:href="#DejaVuSans-67" x="344.490234"/>
      <use xlink:href="#DejaVuSans-20" x="407.966797"/>
      <use xlink:href="#DejaVuSans-72" x="439.753906"/>
      <use xlink:href="#DejaVuSans-61" x="480.867188"/>
      <use xlink:href="#DejaVuSans-74" x="542.146484"/>
      <use xlink:href="#DejaVuSans-65" x="581.355469"/>
      <use xlink:href="#DejaVuSans-20" x="642.878906"/>
      <use xlink:href="#DejaVuSans-3d" x="674.666016"/>
      <use xlink:href="#DejaVuSans-20" x="758.455078"/>
      <use xlink:href="#DejaVuSans-30" x="790.242188"/>
      <use xlink:href="#DejaVuSans-2e" x="853.865234"/>
      <use xlink:href="#DejaVuSans-30" x="885.652344"/>
      <use xlink:href="#DejaVuSans-31" x="949.275391"/>
     </g>
    </g>
    <g id="line2d_18">
     <path d="M 672.859375 92.109375 
L 692.859375 92.109375 
L 712.859375 92.109375 
" style="fill: none; stroke: #008000; stroke-width: 1.5; stroke-linecap: square"/>
     <g>
      <use xlink:href="#m9256181ae2" x="692.859375" y="92.109375" style="fill: #008000; stroke: #008000"/>
     </g>
    </g>
    <g id="text_17">
     <!-- learning rate = 0.001 -->
     <g transform="translate(728.859375 99.109375)scale(0.2 -0.2)">
      <use xlink:href="#DejaVuSans-6c"/>
      <use xlink:href="#DejaVuSans-65" x="27.783203"/>
      <use xlink:href="#DejaVuSans-61" x="89.306641"/>
      <use xlink:href="#DejaVuSans-72" x="150.585938"/>
      <use xlink:href="#DejaVuSans-6e" x="189.949219"/>
      <use xlink:href="#DejaVuSans-69" x="253.328125"/>
      <use xlink:href="#DejaVuSans-6e" x="281.111328"/>
      <use xlink:href="#DejaVuSans-67" x="344.490234"/>
      <use xlink:href="#DejaVuSans-20" x="407.966797"/>
      <use xlink:href="#DejaVuSans-72" x="439.753906"/>
      <use xlink:href="#DejaVuSans-61" x="480.867188"/>
      <use xlink:href="#DejaVuSans-74" x="542.146484"/>
      <use xlink:href="#DejaVuSans-65" x="581.355469"/>
      <use xlink:href="#DejaVuSans-20" x="642.878906"/>
      <use xlink:href="#DejaVuSans-3d" x="674.666016"/>
      <use xlink:href="#DejaVuSans-20" x="758.455078"/>
      <use xlink:href="#DejaVuSans-30" x="790.242188"/>
      <use xlink:href="#DejaVuSans-2e" x="853.865234"/>
      <use xlink:href="#DejaVuSans-30" x="885.652344"/>
      <use xlink:href="#DejaVuSans-30" x="949.275391"/>
      <use xlink:href="#DejaVuSans-31" x="1012.898438"/>
     </g>
    </g>
   </g>
  </g>
 </g>
 <defs>
  <clipPath id="p1c11af22a1">
   <rect x="69.3625" y="7.2" width="892.8" height="443.52"/>
  </clipPath>
 </defs>
</svg>
