<svg width="410" height="318" viewBox="0 0 410 318" fill="none" xmlns="http://www.w3.org/2000/svg">
<path d="M275.871 283.55C257.777 283.55 207.131 289.372 194.143 297.137C181.147 289.372 130.502 283.55 112.408 283.55C91.5942 283.55 102.983 291.255 102.983 300.771C102.983 310.287 91.5942 318 112.408 318C130.502 318 181.147 312.178 194.143 304.413C207.14 312.178 257.785 318 275.871 318C296.692 318 285.295 310.287 285.295 300.779C285.295 291.263 296.701 283.55 275.871 283.55Z" fill="#FFAC33"/>
<path d="M305.597 168.673C295.45 150.139 280.011 131.627 265.48 118.811C245.584 78.5232 216.54 51 194.143 51C171.747 51 142.702 78.5158 122.806 118.811C108.268 131.634 92.8281 150.139 82.6811 168.68C62.8905 204.844 57.3868 253.423 65.8128 257.265C72.8995 260.506 84.678 245.754 99.9715 219.573C102.147 300.23 157.176 300.779 194.143 300.779C231.103 300.779 286.14 300.237 288.315 219.588C303.609 245.754 315.387 260.506 322.466 257.265C330.892 253.416 325.396 204.837 305.597 168.673Z" fill="#292F33"/>
<path d="M223.975 102.494C217.075 106.996 206.344 111.29 194.143 111.29C181.943 111.29 171.211 107.003 164.311 102.501C137.507 118.351 118.731 154.863 118.731 197.42C118.731 254.491 152.492 300.779 194.143 300.779C235.803 300.779 269.564 254.499 269.564 197.42C269.564 154.863 250.788 118.343 223.975 102.494Z" fill="#F5F8FA"/>
<path d="M278.988 95.5H231.841C200.613 95.5 194.143 89.715 194.143 82.5727C194.143 75.4379 191.189 69.6529 222.417 69.6529C269.564 69.6603 288.413 95.5 278.988 95.5Z" fill="#FFAC33"/>
<path d="M184.719 76.8323C184.719 77.9635 184.476 79.0838 184.003 80.1291C183.529 81.1745 182.835 82.1244 181.96 82.9247C181.085 83.725 180.046 84.3599 178.902 84.7933C177.758 85.2266 176.533 85.4499 175.294 85.4504C174.056 85.4509 172.83 85.2286 171.686 84.7961C170.542 84.3636 169.502 83.7295 168.626 82.9299C167.75 82.1303 167.055 81.181 166.581 80.136C166.107 79.091 165.862 77.9709 165.862 76.8397C165.861 74.555 166.853 72.3635 168.62 70.7472C170.388 69.131 172.786 68.2225 175.286 68.2215C177.787 68.2205 180.185 69.1272 181.954 70.742C183.723 72.3568 184.718 74.5476 184.719 76.8323Z" fill="#F5F8FA"/>
<line x1="228" y1="69.5" x2="343" y2="69.5" stroke="#EE25E6"/>
<line x1="280.696" y1="95.9933" x2="280.491" y2="0.0010861" stroke="#EE25E6"/>
<line x1="193.705" y1="95.9933" x2="193.5" y2="0.00107084" stroke="#EE25E6"/>
<line x1="67.9908" y1="257.585" x2="0.789828" y2="226.454" stroke="#EE25E6"/>
<line x1="132.991" y1="123.585" x2="65.7898" y2="92.4537" stroke="#EE25E6"/>
<line x1="228" y1="95.5" x2="343" y2="95.5" stroke="#EE25E6"/>
<path d="M305.773 87.1818C304.955 87.1818 304.25 86.9886 303.659 86.6023C303.068 86.2159 302.614 85.6837 302.295 85.0057C301.977 84.3277 301.818 83.553 301.818 82.6818C301.818 81.7955 301.981 81.0133 302.307 80.3352C302.636 79.6534 303.095 79.1212 303.682 78.7386C304.273 78.3523 304.962 78.1591 305.75 78.1591C306.364 78.1591 306.917 78.2727 307.409 78.5C307.902 78.7273 308.305 79.0455 308.619 79.4545C308.934 79.8636 309.129 80.3409 309.205 80.8864H307.864C307.761 80.4886 307.534 80.1364 307.182 79.8295C306.833 79.5189 306.364 79.3636 305.773 79.3636C305.25 79.3636 304.792 79.5 304.398 79.7727C304.008 80.0417 303.703 80.4223 303.483 80.9148C303.267 81.4034 303.159 81.9773 303.159 82.6364C303.159 83.3106 303.265 83.8977 303.477 84.3977C303.693 84.8977 303.996 85.286 304.386 85.5625C304.78 85.839 305.242 85.9773 305.773 85.9773C306.121 85.9773 306.438 85.9167 306.722 85.7955C307.006 85.6742 307.246 85.5 307.443 85.2727C307.64 85.0455 307.78 84.7727 307.864 84.4545H309.205C309.129 84.9697 308.941 85.4337 308.642 85.8466C308.347 86.2557 307.955 86.5814 307.466 86.8239C306.981 87.0625 306.417 87.1818 305.773 87.1818ZM316.665 83.4318V78.2727H318.006V87H316.665V85.5227H316.574C316.369 85.9659 316.051 86.3428 315.619 86.6534C315.188 86.9602 314.642 87.1136 313.983 87.1136C313.438 87.1136 312.953 86.9943 312.528 86.7557C312.104 86.5133 311.771 86.1496 311.528 85.6648C311.286 85.1761 311.165 84.5606 311.165 83.8182V78.2727H312.506V83.7273C312.506 84.3636 312.684 84.8712 313.04 85.25C313.4 85.6288 313.858 85.8182 314.415 85.8182C314.748 85.8182 315.087 85.733 315.432 85.5625C315.78 85.392 316.072 85.1307 316.307 84.7784C316.545 84.4261 316.665 83.9773 316.665 83.4318ZM321.803 75.3636V87H320.462V75.3636H321.803ZM324.259 87V78.2727H325.554V79.6364H325.668C325.849 79.1705 326.143 78.8087 326.548 78.5511C326.954 78.2898 327.44 78.1591 328.009 78.1591C328.584 78.1591 329.063 78.2898 329.446 78.5511C329.832 78.8087 330.134 79.1705 330.349 79.6364H330.44C330.664 79.1856 330.999 78.8277 331.446 78.5625C331.893 78.2936 332.429 78.1591 333.054 78.1591C333.834 78.1591 334.473 78.4034 334.969 78.892C335.465 79.3769 335.713 80.1326 335.713 81.1591V87H334.372V81.1591C334.372 80.5152 334.196 80.0549 333.844 79.7784C333.491 79.5019 333.077 79.3636 332.599 79.3636C331.986 79.3636 331.51 79.5492 331.173 79.9205C330.836 80.2879 330.668 80.7538 330.668 81.3182V87H329.304V81.0227C329.304 80.5265 329.143 80.1269 328.821 79.8239C328.499 79.517 328.084 79.3636 327.577 79.3636C327.228 79.3636 326.902 79.4564 326.599 79.642C326.3 79.8277 326.058 80.0852 325.872 80.4148C325.69 80.7405 325.599 81.1174 325.599 81.5455V87H324.259ZM341.824 87.1818C340.983 87.1818 340.258 86.9962 339.648 86.625C339.042 86.25 338.574 85.7273 338.244 85.0568C337.919 84.3826 337.756 83.5985 337.756 82.7045C337.756 81.8106 337.919 81.0227 338.244 80.3409C338.574 79.6553 339.032 79.1212 339.619 78.7386C340.21 78.3523 340.9 78.1591 341.688 78.1591C342.142 78.1591 342.591 78.2348 343.034 78.3864C343.477 78.5379 343.881 78.7841 344.244 79.125C344.608 79.4621 344.898 79.9091 345.114 80.4659C345.33 81.0227 345.438 81.7083 345.438 82.5227V83.0909H338.71V81.9318H344.074C344.074 81.4394 343.975 81 343.778 80.6136C343.585 80.2273 343.309 79.9223 342.949 79.6989C342.593 79.4754 342.172 79.3636 341.688 79.3636C341.153 79.3636 340.691 79.4962 340.301 79.7614C339.915 80.0227 339.617 80.3636 339.409 80.7841C339.201 81.2045 339.097 81.6553 339.097 82.1364V82.9091C339.097 83.5682 339.21 84.1269 339.438 84.5852C339.669 85.0398 339.989 85.3864 340.398 85.625C340.807 85.8598 341.282 85.9773 341.824 85.9773C342.176 85.9773 342.494 85.928 342.778 85.8295C343.066 85.7273 343.314 85.5758 343.523 85.375C343.731 85.1705 343.892 84.9167 344.006 84.6136L345.301 84.9773C345.165 85.4167 344.936 85.803 344.614 86.1364C344.292 86.4659 343.894 86.7235 343.42 86.9091C342.947 87.0909 342.415 87.1818 341.824 87.1818ZM348.818 81.75V87H347.477V78.2727H348.773V79.6364H348.886C349.091 79.1932 349.402 78.8371 349.818 78.5682C350.235 78.2955 350.773 78.1591 351.432 78.1591C352.023 78.1591 352.54 78.2803 352.983 78.5227C353.426 78.7614 353.771 79.125 354.017 79.6136C354.263 80.0985 354.386 80.7121 354.386 81.4545V87H353.045V81.5455C353.045 80.8598 352.867 80.3258 352.511 79.9432C352.155 79.5568 351.667 79.3636 351.045 79.3636C350.617 79.3636 350.235 79.4564 349.898 79.642C349.564 79.8277 349.301 80.0985 349.108 80.4545C348.915 80.8106 348.818 81.2424 348.818 81.75ZM364.632 87.1818C363.905 87.1818 363.263 86.9981 362.706 86.6307C362.149 86.2595 361.714 85.7367 361.399 85.0625C361.085 84.3845 360.928 83.5833 360.928 82.6591C360.928 81.7424 361.085 80.947 361.399 80.2727C361.714 79.5985 362.151 79.0777 362.712 78.7102C363.272 78.3428 363.92 78.1591 364.655 78.1591C365.223 78.1591 365.672 78.2538 366.001 78.4432C366.335 78.6288 366.589 78.8409 366.763 79.0795C366.941 79.3144 367.079 79.5076 367.178 79.6591H367.291V75.3636H368.632V87H367.337V85.6591H367.178C367.079 85.8182 366.939 86.0189 366.757 86.2614C366.575 86.5 366.316 86.714 365.979 86.9034C365.642 87.089 365.193 87.1818 364.632 87.1818ZM364.814 85.9773C365.352 85.9773 365.806 85.8371 366.178 85.5568C366.549 85.2727 366.831 84.8807 367.024 84.3807C367.217 83.8769 367.314 83.2955 367.314 82.6364C367.314 81.9848 367.219 81.4148 367.03 80.9261C366.84 80.4337 366.56 80.0511 366.189 79.7784C365.818 79.5019 365.359 79.3636 364.814 79.3636C364.246 79.3636 363.772 79.5095 363.393 79.8011C363.018 80.089 362.736 80.4811 362.547 80.9773C362.361 81.4697 362.268 82.0227 362.268 82.6364C362.268 83.2576 362.363 83.822 362.553 84.3295C362.746 84.8333 363.03 85.2348 363.405 85.5341C363.784 85.8295 364.253 85.9773 364.814 85.9773ZM374.933 87.1818C374.092 87.1818 373.367 86.9962 372.757 86.625C372.151 86.25 371.683 85.7273 371.354 85.0568C371.028 84.3826 370.865 83.5985 370.865 82.7045C370.865 81.8106 371.028 81.0227 371.354 80.3409C371.683 79.6553 372.142 79.1212 372.729 78.7386C373.32 78.3523 374.009 78.1591 374.797 78.1591C375.251 78.1591 375.7 78.2348 376.143 78.3864C376.587 78.5379 376.99 78.7841 377.354 79.125C377.717 79.4621 378.007 79.9091 378.223 80.4659C378.439 81.0227 378.547 81.7083 378.547 82.5227V83.0909H371.82V81.9318H377.183C377.183 81.4394 377.085 81 376.888 80.6136C376.695 80.2273 376.418 79.9223 376.058 79.6989C375.702 79.4754 375.282 79.3636 374.797 79.3636C374.263 79.3636 373.801 79.4962 373.411 79.7614C373.024 80.0227 372.727 80.3636 372.518 80.7841C372.31 81.2045 372.206 81.6553 372.206 82.1364V82.9091C372.206 83.5682 372.32 84.1269 372.547 84.5852C372.778 85.0398 373.098 85.3864 373.507 85.625C373.916 85.8598 374.392 85.9773 374.933 85.9773C375.286 85.9773 375.604 85.928 375.888 85.8295C376.176 85.7273 376.424 85.5758 376.632 85.375C376.84 85.1705 377.001 84.9167 377.115 84.6136L378.411 84.9773C378.274 85.4167 378.045 85.803 377.723 86.1364C377.401 86.4659 377.003 86.7235 376.53 86.9091C376.056 87.0909 375.524 87.1818 374.933 87.1818ZM380.587 90.2727V78.2727H381.882V79.6591H382.041C382.14 79.5076 382.276 79.3144 382.45 79.0795C382.628 78.8409 382.882 78.6288 383.212 78.4432C383.545 78.2538 383.996 78.1591 384.564 78.1591C385.299 78.1591 385.946 78.3428 386.507 78.7102C387.068 79.0777 387.505 79.5985 387.82 80.2727C388.134 80.947 388.291 81.7424 388.291 82.6591C388.291 83.5833 388.134 84.3845 387.82 85.0625C387.505 85.7367 387.07 86.2595 386.513 86.6307C385.956 86.9981 385.314 87.1818 384.587 87.1818C384.026 87.1818 383.577 87.089 383.24 86.9034C382.903 86.714 382.643 86.5 382.462 86.2614C382.28 86.0189 382.14 85.8182 382.041 85.6591H381.928V90.2727H380.587ZM381.905 82.6364C381.905 83.2955 382.001 83.8769 382.195 84.3807C382.388 84.8807 382.67 85.2727 383.041 85.5568C383.412 85.8371 383.867 85.9773 384.405 85.9773C384.965 85.9773 385.433 85.8295 385.808 85.5341C386.187 85.2348 386.471 84.8333 386.661 84.3295C386.854 83.822 386.95 83.2576 386.95 82.6364C386.95 82.0227 386.856 81.4697 386.666 80.9773C386.481 80.4811 386.198 80.089 385.82 79.8011C385.445 79.5095 384.973 79.3636 384.405 79.3636C383.859 79.3636 383.401 79.5019 383.03 79.7784C382.659 80.0511 382.378 80.4337 382.189 80.9261C382 81.4148 381.905 81.9848 381.905 82.6364ZM394.132 78.2727V79.4091H389.609V78.2727H394.132ZM390.928 76.1818H392.268V84.5C392.268 84.8788 392.323 85.1629 392.433 85.3523C392.547 85.5379 392.691 85.6629 392.865 85.7273C393.043 85.7879 393.231 85.8182 393.428 85.8182C393.575 85.8182 393.696 85.8106 393.791 85.7955C393.886 85.7765 393.962 85.7614 394.018 85.75L394.291 86.9545C394.2 86.9886 394.073 87.0227 393.911 87.0568C393.748 87.0947 393.541 87.1136 393.291 87.1136C392.912 87.1136 392.541 87.0322 392.178 86.8693C391.818 86.7064 391.518 86.4583 391.28 86.125C391.045 85.7917 390.928 85.3712 390.928 84.8636V76.1818ZM397.678 81.75V87H396.337V75.3636H397.678V79.6364H397.791C397.996 79.1856 398.303 78.8277 398.712 78.5625C399.125 78.2936 399.674 78.1591 400.359 78.1591C400.954 78.1591 401.475 78.2784 401.922 78.517C402.369 78.7519 402.715 79.1136 402.962 79.6023C403.212 80.0871 403.337 80.7045 403.337 81.4545V87H401.996V81.5455C401.996 80.8523 401.816 80.3163 401.456 79.9375C401.1 79.5549 400.606 79.3636 399.973 79.3636C399.534 79.3636 399.14 79.4564 398.791 79.642C398.446 79.8277 398.174 80.0985 397.973 80.4545C397.776 80.8106 397.678 81.2424 397.678 81.75Z" fill="black"/>
<path d="M212.718 15.1818C211.9 15.1818 211.195 14.9886 210.604 14.6023C210.013 14.2159 209.559 13.6837 209.241 13.0057C208.923 12.3277 208.763 11.553 208.763 10.6818C208.763 9.79545 208.926 9.01326 209.252 8.33523C209.582 7.65341 210.04 7.12121 210.627 6.73864C211.218 6.35227 211.907 6.15909 212.695 6.15909C213.309 6.15909 213.862 6.27273 214.354 6.5C214.847 6.72727 215.25 7.04545 215.565 7.45455C215.879 7.86364 216.074 8.34091 216.15 8.88636H214.809C214.707 8.48864 214.479 8.13636 214.127 7.82955C213.779 7.51894 213.309 7.36364 212.718 7.36364C212.195 7.36364 211.737 7.5 211.343 7.77273C210.953 8.04167 210.648 8.42235 210.428 8.91477C210.212 9.40341 210.104 9.97727 210.104 10.6364C210.104 11.3106 210.21 11.8977 210.423 12.3977C210.638 12.8977 210.942 13.286 211.332 13.5625C211.726 13.839 212.188 13.9773 212.718 13.9773C213.067 13.9773 213.383 13.9167 213.667 13.7955C213.951 13.6742 214.192 13.5 214.388 13.2727C214.585 13.0455 214.726 12.7727 214.809 12.4545H216.15C216.074 12.9697 215.887 13.4337 215.587 13.8466C215.292 14.2557 214.9 14.5814 214.411 14.8239C213.926 15.0625 213.362 15.1818 212.718 15.1818ZM223.61 11.4318V6.27273H224.951V15H223.61V13.5227H223.519C223.315 13.9659 222.996 14.3428 222.565 14.6534C222.133 14.9602 221.587 15.1136 220.928 15.1136C220.383 15.1136 219.898 14.9943 219.474 14.7557C219.049 14.5133 218.716 14.1496 218.474 13.6648C218.231 13.1761 218.11 12.5606 218.11 11.8182V6.27273H219.451V11.7273C219.451 12.3636 219.629 12.8712 219.985 13.25C220.345 13.6288 220.803 13.8182 221.36 13.8182C221.693 13.8182 222.032 13.733 222.377 13.5625C222.726 13.392 223.017 13.1307 223.252 12.7784C223.491 12.4261 223.61 11.9773 223.61 11.4318ZM228.748 3.36364V15H227.407V3.36364H228.748ZM231.204 15V6.27273H232.499V7.63636H232.613C232.795 7.17045 233.088 6.80871 233.494 6.55114C233.899 6.28977 234.386 6.15909 234.954 6.15909C235.53 6.15909 236.009 6.28977 236.391 6.55114C236.778 6.80871 237.079 7.17045 237.295 7.63636H237.386C237.609 7.18561 237.944 6.82765 238.391 6.5625C238.838 6.29356 239.374 6.15909 239.999 6.15909C240.78 6.15909 241.418 6.40341 241.914 6.89205C242.41 7.37689 242.658 8.13258 242.658 9.15909V15H241.317V9.15909C241.317 8.51515 241.141 8.05492 240.789 7.77841C240.437 7.50189 240.022 7.36364 239.545 7.36364C238.931 7.36364 238.456 7.54924 238.119 7.92045C237.781 8.28788 237.613 8.75379 237.613 9.31818V15H236.249V9.02273C236.249 8.52652 236.088 8.12689 235.766 7.82386C235.444 7.51705 235.03 7.36364 234.522 7.36364C234.174 7.36364 233.848 7.45644 233.545 7.64205C233.246 7.82765 233.003 8.08523 232.817 8.41477C232.636 8.74053 232.545 9.11742 232.545 9.54545V15H231.204ZM248.769 15.1818C247.928 15.1818 247.203 14.9962 246.593 14.625C245.987 14.25 245.519 13.7273 245.19 13.0568C244.864 12.3826 244.701 11.5985 244.701 10.7045C244.701 9.81061 244.864 9.02273 245.19 8.34091C245.519 7.6553 245.978 7.12121 246.565 6.73864C247.156 6.35227 247.845 6.15909 248.633 6.15909C249.087 6.15909 249.536 6.23485 249.979 6.38636C250.423 6.53788 250.826 6.78409 251.19 7.125C251.553 7.46212 251.843 7.90909 252.059 8.46591C252.275 9.02273 252.383 9.70833 252.383 10.5227V11.0909H245.656V9.93182H251.019C251.019 9.43939 250.921 9 250.724 8.61364C250.531 8.22727 250.254 7.92235 249.894 7.69886C249.538 7.47538 249.118 7.36364 248.633 7.36364C248.099 7.36364 247.637 7.49621 247.246 7.76136C246.86 8.02273 246.563 8.36364 246.354 8.78409C246.146 9.20455 246.042 9.6553 246.042 10.1364V10.9091C246.042 11.5682 246.156 12.1269 246.383 12.5852C246.614 13.0398 246.934 13.3864 247.343 13.625C247.752 13.8598 248.228 13.9773 248.769 13.9773C249.121 13.9773 249.44 13.928 249.724 13.8295C250.012 13.7273 250.26 13.5758 250.468 13.375C250.676 13.1705 250.837 12.9167 250.951 12.6136L252.246 12.9773C252.11 13.4167 251.881 13.803 251.559 14.1364C251.237 14.4659 250.839 14.7235 250.366 14.9091C249.892 15.0909 249.36 15.1818 248.769 15.1818ZM255.763 9.75V15H254.423V6.27273H255.718V7.63636H255.832C256.036 7.19318 256.347 6.83712 256.763 6.56818C257.18 6.29545 257.718 6.15909 258.377 6.15909C258.968 6.15909 259.485 6.2803 259.928 6.52273C260.371 6.76136 260.716 7.125 260.962 7.61364C261.209 8.09848 261.332 8.71212 261.332 9.45455V15H259.991V9.54545C259.991 8.85985 259.813 8.32576 259.457 7.94318C259.101 7.55682 258.612 7.36364 257.991 7.36364C257.563 7.36364 257.18 7.45644 256.843 7.64205C256.51 7.82765 256.246 8.09848 256.053 8.45455C255.86 8.81061 255.763 9.24242 255.763 9.75ZM216.232 22.3636V34H214.891V22.3636H216.232ZM222.347 34.1818C221.506 34.1818 220.781 33.9962 220.171 33.625C219.565 33.25 219.097 32.7273 218.768 32.0568C218.442 31.3826 218.279 30.5985 218.279 29.7045C218.279 28.8106 218.442 28.0227 218.768 27.3409C219.097 26.6553 219.556 26.1212 220.143 25.7386C220.734 25.3523 221.423 25.1591 222.211 25.1591C222.665 25.1591 223.114 25.2348 223.558 25.3864C224.001 25.5379 224.404 25.7841 224.768 26.125C225.131 26.4621 225.421 26.9091 225.637 27.4659C225.853 28.0227 225.961 28.7083 225.961 29.5227V30.0909H219.234V28.9318H224.597C224.597 28.4394 224.499 28 224.302 27.6136C224.109 27.2273 223.832 26.9223 223.472 26.6989C223.116 26.4754 222.696 26.3636 222.211 26.3636C221.677 26.3636 221.215 26.4962 220.825 26.7614C220.438 27.0227 220.141 27.3636 219.933 27.7841C219.724 28.2045 219.62 28.6553 219.62 29.1364V29.9091C219.62 30.5682 219.734 31.1269 219.961 31.5852C220.192 32.0398 220.512 32.3864 220.921 32.625C221.33 32.8598 221.806 32.9773 222.347 32.9773C222.7 32.9773 223.018 32.928 223.302 32.8295C223.59 32.7273 223.838 32.5758 224.046 32.375C224.254 32.1705 224.415 31.9167 224.529 31.6136L225.825 31.9773C225.688 32.4167 225.459 32.803 225.137 33.1364C224.815 33.4659 224.417 33.7235 223.944 33.9091C223.47 34.0909 222.938 34.1818 222.347 34.1818ZM229.342 28.75V34H228.001V25.2727H229.296V26.6364H229.41C229.614 26.1932 229.925 25.8371 230.342 25.5682C230.758 25.2955 231.296 25.1591 231.955 25.1591C232.546 25.1591 233.063 25.2803 233.506 25.5227C233.95 25.7614 234.294 26.125 234.54 26.6136C234.787 27.0985 234.91 27.7121 234.91 28.4545V34H233.569V28.5455C233.569 27.8598 233.391 27.3258 233.035 26.9432C232.679 26.5568 232.19 26.3636 231.569 26.3636C231.141 26.3636 230.758 26.4564 230.421 26.642C230.088 26.8277 229.825 27.0985 229.631 27.4545C229.438 27.8106 229.342 28.2424 229.342 28.75ZM240.883 37.4545C240.235 37.4545 239.678 37.3712 239.212 37.2045C238.746 37.0417 238.358 36.8258 238.048 36.5568C237.741 36.2917 237.496 36.0076 237.315 35.7045L238.383 34.9545C238.504 35.1136 238.657 35.2955 238.843 35.5C239.029 35.7083 239.282 35.8883 239.604 36.0398C239.93 36.1951 240.356 36.2727 240.883 36.2727C241.587 36.2727 242.169 36.1023 242.627 35.7614C243.085 35.4205 243.315 34.8864 243.315 34.1591V32.3864H243.201C243.103 32.5455 242.962 32.7424 242.781 32.9773C242.603 33.2083 242.345 33.4148 242.008 33.5966C241.674 33.7746 241.224 33.8636 240.656 33.8636C239.951 33.8636 239.318 33.697 238.758 33.3636C238.201 33.0303 237.76 32.5455 237.434 31.9091C237.112 31.2727 236.951 30.5 236.951 29.5909C236.951 28.697 237.108 27.9186 237.423 27.2557C237.737 26.589 238.174 26.0739 238.735 25.7102C239.296 25.3428 239.943 25.1591 240.678 25.1591C241.246 25.1591 241.697 25.2538 242.031 25.4432C242.368 25.6288 242.625 25.8409 242.803 26.0795C242.985 26.3144 243.125 26.5076 243.224 26.6591H243.36V25.2727H244.656V34.25C244.656 35 244.485 35.6098 244.144 36.0795C243.807 36.553 243.353 36.8996 242.781 37.1193C242.212 37.3428 241.58 37.4545 240.883 37.4545ZM240.837 32.6591C241.375 32.6591 241.83 32.536 242.201 32.2898C242.572 32.0436 242.854 31.6894 243.048 31.2273C243.241 30.7652 243.337 30.2121 243.337 29.5682C243.337 28.9394 243.243 28.3845 243.053 27.9034C242.864 27.4223 242.584 27.0455 242.212 26.7727C241.841 26.5 241.383 26.3636 240.837 26.3636C240.269 26.3636 239.796 26.5076 239.417 26.7955C239.042 27.0833 238.76 27.4697 238.57 27.9545C238.385 28.4394 238.292 28.9773 238.292 29.5682C238.292 30.1742 238.387 30.7102 238.576 31.1761C238.769 31.6383 239.053 32.0019 239.428 32.267C239.807 32.5284 240.277 32.6591 240.837 32.6591ZM250.906 25.2727V26.4091H246.383V25.2727H250.906ZM247.701 23.1818H249.042V31.5C249.042 31.8788 249.097 32.1629 249.207 32.3523C249.32 32.5379 249.464 32.6629 249.638 32.7273C249.817 32.7879 250.004 32.8182 250.201 32.8182C250.349 32.8182 250.47 32.8106 250.565 32.7955C250.659 32.7765 250.735 32.7614 250.792 32.75L251.065 33.9545C250.974 33.9886 250.847 34.0227 250.684 34.0568C250.521 34.0947 250.315 34.1136 250.065 34.1136C249.686 34.1136 249.315 34.0322 248.951 33.8693C248.591 33.7064 248.292 33.4583 248.053 33.125C247.818 32.7917 247.701 32.3712 247.701 31.8636V23.1818ZM254.451 28.75V34H253.11V22.3636H254.451V26.6364H254.565C254.769 26.1856 255.076 25.8277 255.485 25.5625C255.898 25.2936 256.447 25.1591 257.133 25.1591C257.728 25.1591 258.248 25.2784 258.695 25.517C259.142 25.7519 259.489 26.1136 259.735 26.6023C259.985 27.0871 260.11 27.7045 260.11 28.4545V34H258.769V28.5455C258.769 27.8523 258.589 27.3163 258.229 26.9375C257.873 26.5549 257.379 26.3636 256.746 26.3636C256.307 26.3636 255.913 26.4564 255.565 26.642C255.22 26.8277 254.947 27.0985 254.746 27.4545C254.549 27.8106 254.451 28.2424 254.451 28.75Z" fill="black"/>
<path d="M16.6707 200.949L17.7017 201.426L15.7239 205.695L14.6929 205.217L16.6707 200.949ZM23.2038 207.608L14.1923 203.432C13.7387 203.222 13.41 202.941 13.2063 202.587C13.0025 202.234 12.9039 201.852 12.9103 201.442C12.9167 201.032 13.0075 200.637 13.1827 200.259C13.3213 199.96 13.4584 199.728 13.5941 199.561C13.7298 199.394 13.8397 199.274 13.924 199.2L14.8132 200.038C14.764 200.09 14.6984 200.164 14.6165 200.26C14.5362 200.352 14.4554 200.486 14.3742 200.661C14.1879 201.063 14.1547 201.401 14.2747 201.673C14.3963 201.943 14.6529 202.168 15.0447 202.35L23.7676 206.391L23.2038 207.608ZM15.3849 196.804L25.943 201.696L25.3793 202.913L14.8212 198.021L15.3849 196.804ZM26.9755 199.468L19.0569 195.799L19.6207 194.582L27.5392 198.251L26.9755 199.468ZM18.0238 194.568C17.9139 194.806 17.7384 194.973 17.4973 195.07C17.2577 195.163 17.0245 195.157 16.7977 195.052C16.5708 194.947 16.4157 194.773 16.3322 194.53C16.2502 194.283 16.2642 194.041 16.3741 193.804C16.484 193.567 16.6587 193.402 16.8983 193.308C17.1394 193.211 17.3734 193.215 17.6003 193.32C17.8271 193.425 17.9815 193.601 18.0634 193.848C18.1469 194.091 18.1337 194.331 18.0238 194.568ZM31.5412 197.398L20.6532 192.354L21.1978 191.178L22.4557 191.761L22.5225 191.617C22.4265 191.464 22.3085 191.259 22.1687 191.002C22.027 190.74 21.9412 190.42 21.9114 190.043C21.8797 189.661 21.9832 189.213 22.2221 188.697C22.531 188.03 22.97 187.52 23.5391 187.166C24.1081 186.811 24.7646 186.633 25.5086 186.632C26.2525 186.63 27.0403 186.822 27.8721 187.207C28.7107 187.595 29.3715 188.075 29.8545 188.645C30.3341 189.214 30.6253 189.829 30.728 190.49C30.8273 191.15 30.7241 191.81 30.4183 192.47C30.1826 192.978 29.9097 193.346 29.5996 193.574C29.286 193.801 28.9828 193.946 28.6898 194.011C28.3934 194.074 28.1523 194.117 27.9666 194.139L27.9188 194.242L32.1049 196.182L31.5412 197.398ZM25.1666 192.992C25.7646 193.269 26.3328 193.426 26.8711 193.462C27.406 193.497 27.8804 193.406 28.2942 193.189C28.7046 192.97 29.0228 192.616 29.249 192.128C29.4846 191.619 29.5473 191.133 29.4368 190.668C29.3246 190.199 29.0797 189.772 28.7022 189.389C28.3229 189 27.8514 188.675 27.2877 188.414C26.731 188.156 26.1894 188.009 25.6629 187.974C25.1347 187.934 24.6603 188.025 24.2399 188.248C23.8176 188.466 23.487 188.832 23.2481 189.348C23.0188 189.843 22.9516 190.317 23.0464 190.77C23.1378 191.221 23.3671 191.636 23.7343 192.015C24.098 192.392 24.5755 192.718 25.1666 192.992ZM35.6401 188.552L24.7521 183.507L25.2967 182.332L26.5546 182.914L26.6215 182.77C26.5254 182.617 26.4074 182.412 26.2676 182.155C26.1259 181.893 26.0402 181.574 26.0103 181.197C25.9786 180.815 26.0822 180.366 26.321 179.85C26.63 179.184 27.069 178.673 27.638 178.319C28.2071 177.965 28.8636 177.787 29.6075 177.785C30.3514 177.783 31.1393 177.975 31.971 178.36C32.8096 178.749 33.4704 179.228 33.9534 179.799C34.433 180.367 34.7242 180.982 34.8269 181.644C34.9262 182.303 34.823 182.963 34.5172 183.623C34.2816 184.132 34.0087 184.5 33.6985 184.728C33.3849 184.954 33.0817 185.1 32.7887 185.164C32.4923 185.227 32.2512 185.27 32.0655 185.292L32.0177 185.396L36.2039 187.335L35.6401 188.552ZM29.2655 184.145C29.8636 184.423 30.4317 184.579 30.97 184.616C31.5049 184.651 31.9793 184.56 32.3931 184.342C32.8035 184.123 33.1217 183.77 33.3479 183.282C33.5836 182.773 33.6462 182.286 33.5358 181.822C33.4235 181.352 33.1786 180.926 32.8011 180.542C32.4218 180.154 31.9503 179.829 31.3867 179.568C30.8299 179.31 30.2883 179.163 29.7619 179.128C29.2336 179.088 28.7593 179.179 28.3388 179.401C27.9165 179.619 27.5859 179.986 27.3471 180.501C27.1178 180.996 27.0505 181.47 27.1454 181.923C27.2368 182.375 27.466 182.79 27.8332 183.169C28.197 183.546 28.6744 183.872 29.2655 184.145ZM38.4728 175.086C38.1193 175.849 37.646 176.429 37.0528 176.826C36.4577 177.218 35.7868 177.423 35.0399 177.44C34.2912 177.452 33.5113 177.271 32.7002 176.895C31.8891 176.519 31.2427 176.04 30.761 175.458C30.2774 174.87 29.9855 174.23 29.8852 173.537C29.7831 172.838 29.8976 172.131 30.2289 171.416C30.4199 171.004 30.6774 170.629 31.0012 170.29C31.325 169.952 31.718 169.689 32.1802 169.503C32.6389 169.314 33.1663 169.239 33.7623 169.277C34.3583 169.316 35.0257 169.506 35.7647 169.848L36.2802 170.087L33.452 176.191L32.4003 175.704L34.6552 170.837C34.2084 170.63 33.7684 170.535 33.335 170.551C32.9032 170.564 32.5103 170.687 32.1562 170.919C31.8038 171.148 31.5256 171.483 31.3218 171.923C31.0973 172.407 31.0233 172.882 31.0998 173.348C31.1745 173.808 31.3589 174.221 31.6528 174.587C31.9467 174.953 32.3119 175.237 32.7484 175.439L33.4495 175.764C34.0475 176.041 34.6022 176.173 35.1136 176.159C35.6232 176.141 36.0722 175.996 36.4607 175.725C36.8458 175.453 37.1522 175.071 37.3799 174.579C37.528 174.26 37.6171 173.95 37.6472 173.651C37.6754 173.347 37.6422 173.058 37.5477 172.785C37.4496 172.51 37.2871 172.257 37.0599 172.026L37.9344 171.004C38.2758 171.312 38.53 171.683 38.6971 172.115C38.8607 172.546 38.9272 173.015 38.8966 173.523C38.8625 174.029 38.7213 174.55 38.4728 175.086ZM40.6846 169.88L32.766 166.211L33.3106 165.035L34.5066 165.59L34.5449 165.507C34.2199 165.181 34.0231 164.773 33.9542 164.282C33.8854 163.79 33.9608 163.308 34.1806 162.834C34.222 162.744 34.2754 162.633 34.341 162.501C34.4065 162.368 34.4587 162.269 34.4974 162.204L35.7347 162.777C35.7052 162.814 35.646 162.901 35.5569 163.039C35.4659 163.172 35.383 163.32 35.3082 163.481C35.1299 163.866 35.0514 164.247 35.0728 164.625C35.0923 164.997 35.2024 165.336 35.403 165.642C35.6018 165.943 35.8799 166.176 36.2373 166.341L41.2483 168.663L40.6846 169.88ZM35.0847 154.287L45.6428 159.179L45.0791 160.395L34.521 155.503L35.0847 154.287ZM48.3786 153.707C48.0251 154.47 47.5517 155.05 46.9585 155.447C46.3635 155.839 45.6925 156.044 44.9456 156.061C44.1969 156.073 43.417 155.891 42.6059 155.516C41.7948 155.14 41.1484 154.661 40.6667 154.079C40.1832 153.491 39.8913 152.851 39.791 152.157C39.6888 151.459 39.8034 150.752 40.1346 150.037C40.3257 149.625 40.5831 149.249 40.9069 148.911C41.2307 148.573 41.6237 148.31 42.0859 148.123C42.5446 147.935 43.072 147.86 43.668 147.898C44.264 147.937 44.9315 148.127 45.6704 148.469L46.1859 148.708L43.3578 154.812L42.3061 154.325L44.561 149.458C44.1142 149.251 43.6741 149.156 43.2407 149.172C42.8089 149.185 42.416 149.308 42.062 149.54C41.7095 149.769 41.4314 150.104 41.2275 150.544C41.003 151.028 40.929 151.503 41.0056 151.969C41.0803 152.429 41.2646 152.842 41.5585 153.208C41.8524 153.574 42.2176 153.858 42.6541 154.06L43.3552 154.385C43.9532 154.662 44.508 154.794 45.0194 154.78C45.5289 154.762 45.978 154.617 46.3665 154.346C46.7515 154.074 47.0579 153.692 47.2856 153.2C47.4337 152.881 47.5228 152.571 47.5529 152.272C47.5811 151.968 47.548 151.679 47.4534 151.406C47.3554 151.131 47.1928 150.878 46.9656 150.647L47.8402 149.625C48.1815 149.933 48.4357 150.304 48.6028 150.736C48.7665 151.167 48.833 151.636 48.8023 152.143C48.7683 152.649 48.627 153.171 48.3786 153.707ZM46.3905 145.077L51.154 147.284L50.5903 148.501L42.6717 144.832L43.2163 143.656L44.4536 144.23L44.5014 144.126C44.1853 143.755 43.9928 143.323 43.9239 142.832C43.8516 142.339 43.954 141.794 44.2311 141.196C44.4795 140.66 44.8069 140.242 45.2132 139.941C45.616 139.64 46.0909 139.48 46.6377 139.462C47.1812 139.442 47.7897 139.588 48.4633 139.9L53.4949 142.232L52.9312 143.448L47.9821 141.155C47.36 140.867 46.8006 140.804 46.3037 140.966C45.8035 141.127 45.4228 141.489 45.1616 142.053C44.9817 142.441 44.905 142.827 44.9317 143.211C44.96 143.592 45.0951 143.944 45.3369 144.269C45.5788 144.594 45.93 144.864 46.3905 145.077ZM59.1404 138.265C58.8681 138.852 58.5584 139.322 58.2113 139.675C57.8677 140.029 57.5085 140.291 57.1339 140.46C56.7644 140.627 56.4039 140.729 56.0525 140.766L55.8211 139.482C56.0164 139.439 56.2458 139.376 56.5095 139.294C56.7765 139.213 57.0465 139.058 57.3193 138.83C57.5972 138.599 57.8468 138.245 58.0681 137.768C58.3643 137.128 58.4541 136.529 58.3375 135.97C58.2208 135.411 57.8326 134.978 57.1727 134.673L55.5642 133.927L55.5164 134.031C55.6194 134.187 55.7392 134.397 55.8758 134.66C56.0106 134.919 56.0897 135.24 56.1129 135.622C56.1343 135.999 56.0256 136.446 55.7867 136.961C55.4905 137.6 55.0734 138.104 54.5352 138.473C53.9987 138.838 53.3733 139.034 52.6589 139.063C51.9462 139.087 51.1774 138.908 50.3525 138.526C49.5414 138.15 48.9012 137.68 48.4319 137.117C47.9592 136.551 47.6757 135.937 47.5814 135.276C47.4838 134.613 47.5894 133.948 47.8983 133.281C48.1372 132.766 48.4126 132.396 48.7246 132.174C49.0347 131.946 49.3355 131.801 49.6268 131.74C49.9163 131.674 50.1505 131.628 50.3294 131.602L50.3868 131.478L49.1289 130.896L49.6735 129.72L57.8189 133.494C58.4994 133.81 58.9811 134.221 59.2639 134.727C59.5518 135.232 59.6752 135.79 59.6341 136.402C59.598 137.011 59.4334 137.632 59.1404 138.265ZM54.7702 136.29C54.9963 135.802 55.0757 135.338 55.0084 134.897C54.9411 134.457 54.7383 134.052 54.4003 133.682C54.0622 133.313 53.601 132.993 53.0167 132.722C52.4462 132.458 51.9029 132.31 51.3868 132.28C50.8707 132.25 50.4109 132.345 50.0073 132.568C49.6038 132.79 49.2874 133.148 49.0581 133.643C48.8192 134.159 48.7508 134.649 48.8528 135.114C48.9563 135.575 49.1882 135.993 49.5485 136.369C49.9104 136.741 50.3594 137.052 50.8956 137.3C51.4455 137.555 51.9716 137.694 52.474 137.718C52.9745 137.737 53.4239 137.632 53.8221 137.403C54.2185 137.17 54.5345 136.798 54.7702 136.29ZM52.301 124.049L53.332 124.527L51.4307 128.631L50.3996 128.153L52.301 124.049ZM49.0566 126.078L49.6203 124.861L57.1677 128.358C57.5114 128.517 57.7923 128.587 58.0103 128.567C58.2265 128.542 58.4004 128.464 58.5321 128.333C58.6619 128.197 58.7683 128.039 58.8511 127.861C58.9132 127.727 58.9573 127.613 58.9833 127.521C59.0059 127.427 59.024 127.352 59.0376 127.296L60.2452 127.555C60.2379 127.652 60.2155 127.781 60.178 127.943C60.1439 128.107 60.0742 128.302 59.9691 128.529C59.8099 128.873 59.58 129.175 59.2793 129.437C58.9802 129.695 58.6293 129.862 58.2265 129.938C57.8254 130.011 57.3945 129.941 56.934 129.728L49.0566 126.078ZM56.9466 122.294L61.7101 124.501L61.1464 125.718L50.5882 120.826L51.152 119.609L55.0288 121.406L55.0765 121.303C54.7535 120.927 54.5578 120.499 54.4892 120.016C54.4187 119.528 54.5276 118.973 54.8158 118.351C55.0658 117.812 55.3931 117.389 55.7975 117.084C56.1985 116.777 56.6724 116.615 57.2193 116.597C57.7643 116.574 58.3771 116.72 59.0576 117.035L64.0892 119.367L63.5255 120.583L58.5763 118.29C57.9474 117.999 57.3854 117.937 56.8905 118.104C56.3936 118.266 56.0123 118.634 55.7463 119.208C55.5616 119.607 55.4802 120.003 55.5021 120.398C55.5256 120.788 55.6567 121.15 55.8954 121.482C56.1356 121.81 56.486 122.081 56.9466 122.294Z" fill="black"/>
</svg>
